<svg xmlns="http://www.w3.org/2000/svg" width="82.46" height="145.337" viewBox="0 0 82.46 145.337">
  <g id="Group_32" data-name="Group 32" transform="translate(-368.039 -439.001)">
    <path id="Path_79" data-name="Path 79" d="M238.141,140.55c1.115-1.6,2.19-4.477.981-9.1-.283-1.082-.7-2.309-1.044-3.294l-.127-.369a.958.958,0,0,1-.027-.214c-1.094-2.992-3.543-7.7-8.306-8.582-5.376-.993-10.256-.859-13.39.363a1,1,0,0,1-.727-1.863c3.471-1.355,8.748-1.525,14.48-.467.032.006.063.015.1.021a3.689,3.689,0,0,1-.2-.39,5.754,5.754,0,0,1,1.541-6.563c.159-.127.324-.243.489-.359-1.222-.056-2.443-.128-3.639-.2-.906-.053-1.8-.106-2.664-.15-8.553-.437-14.645-10.1-14.9-10.509a1,1,0,0,1,1.7-1.055c.057.092,5.8,9.183,13.3,9.566.872.045,1.769.1,2.68.151,3.1.185,6.364.376,9.331.271.029,0,.057-.006.087-.007.009,0,.016,0,.025,0,4-.152,7.442-.855,9.121-2.879a4.956,4.956,0,0,0,1.257-4.339,5.88,5.88,0,0,0-2.828-3.743c-1.19-.571-5.921-.54-9.05-.516-1.752.013-3.266.023-4.125-.053-4.987-.437-8.926-5.572-11.533-8.97l-.287-.374a1,1,0,1,1,1.585-1.22l.289.377c2.393,3.119,6.01,7.834,10.121,8.195.764.066,2.234.056,3.935.045,4.716-.033,8.442,0,9.931.713a7.83,7.83,0,0,1,3.916,5.119,6.889,6.889,0,0,1-1.672,6.043c-2.121,2.556-6.086,3.414-10.586,3.594l-.009,0a8.687,8.687,0,0,0-5.227,1.856,3.745,3.745,0,0,0-.948,4.22c.67,1.584,4.384,2.525,6.563,2.378,6.634-.432,9.675-4.067,11.687-6.471l.475-.564c2.142-2.5,4.3-6.115,4.074-14-.228-7.914-7.274-11.714-7.345-11.752-.018-.009-.029-.027-.046-.037a3.412,3.412,0,0,0-1.3-.4.967.967,0,0,1-.142-.042,34.273,34.273,0,0,1-7.659.884c-8.694,0-17.314-4.287-24.394-11.078-1.349,2.053-8.039,12.364-9.848,17.58-2.007,5.789-3.01,15.623-2.845,20.126.176,5.118,2.256,13.839,5.556,16.226,3.636,2.629,9.8,3.705,13.763,3.384.135-.011.269-.016.4-.016,3.415,0,5.145,3.666,6.3,6.123a12.917,12.917,0,0,0,1.058,1.987c1.329,1.728,2.874,3.377,5.835,3.108a6.249,6.249,0,0,0,4.285-2.757" transform="translate(171 439)" fill="#cbcccc"/>
    <path id="Path_80" data-name="Path 80" d="M254.984,6.024a38,38,0,0,0-16.793-3.943C211.4,2.081,199.2,20.2,199.2,37.041c0,12.471,5.826,26.118,15.2,35.618a.972.972,0,0,1,.232.4c6.77,6.62,15.046,10.809,23.393,10.809,20.567,0,39.3-20.143,39.3-42.261A40.183,40.183,0,0,0,254.984,6.024" transform="translate(171 439)" fill="#cbcccc"/>
    <path id="Path_81" data-name="Path 81" d="M244.977,130.575c1.4,3.325,3.532,8.371,6.662,8.158,4.835-.3,7.108-3,7.622-5.429.522-2.465.441-9.975-2.077-12.716-2.421-2.636-5.151-5.35-7.222-5.774a16.515,16.515,0,0,1-11.554,5.43c-.17.011-.353.017-.547.017a13.327,13.327,0,0,1-2.228-.206,17.749,17.749,0,0,1,3.952,6.252,4.47,4.47,0,0,1,3.648.986c.547.48.974,1.456,1.744,3.282" transform="translate(171 439)" fill="#cbcccc"/>
    <path id="Path_82" data-name="Path 82" d="M279.5,41.692A42.217,42.217,0,0,0,255.853,4.227,39.948,39.948,0,0,0,238.036,0c-20.373,0-41,12.7-41,36.96,0,13.589,6.162,27.029,15.147,36.374-.015.033-.032.065-.045.1-.882,1.331-8.232,12.5-10.236,18.283-2.165,6.244-3.121,16.294-2.955,20.851.146,4.228,1.955,14.573,6.383,17.777,4.068,2.941,10.67,4.109,15.1,3.756,2.116-.2,3.4,2.147,4.732,4.967a13.6,13.6,0,0,0,1.285,2.357c1.075,1.4,3.015,3.915,6.772,3.915q.4,0,.837-.04a8.212,8.212,0,0,0,5.734-3.6c1.355-1.944,2.677-5.388,1.276-10.756-.232-.885-.543-1.836-.833-2.689a2.356,2.356,0,0,1,1.681.54,14.849,14.849,0,0,1,1.229,2.563c1.621,3.846,4.07,9.672,8.626,9.378,5.962-.365,8.821-4,9.458-7.01.572-2.706.651-10.986-2.562-14.485-2.658-2.894-4.947-5.062-7.07-5.989.019-.024.038-.046.057-.068.169-.2.329-.394.487-.577,2.388-2.8,4.8-6.809,4.549-15.368-.22-7.589-5.695-11.765-7.665-13.024,17.3-5.592,30.475-23.681,30.475-42.517m-22.306,78.9c2.518,2.741,2.6,10.251,2.078,12.716-.515,2.43-2.787,5.133-7.623,5.429-3.129.213-5.259-4.833-6.661-8.158-.77-1.826-1.2-2.8-1.744-3.282a4.471,4.471,0,0,0-3.648-.986,17.749,17.749,0,0,0-3.952-6.252,13.316,13.316,0,0,0,2.227.205c.194,0,.378-.005.548-.016a16.514,16.514,0,0,0,11.553-5.43c2.072.424,4.8,3.138,7.222,5.774m-2.669-23.377c.227,7.886-1.931,11.5-4.073,14l-.476.563c-2.012,2.4-5.052,6.039-11.687,6.472-2.179.146-5.893-.794-6.563-2.378a3.747,3.747,0,0,1,.948-4.221,8.692,8.692,0,0,1,5.228-1.855l.008,0c4.5-.18,8.465-1.039,10.586-3.594a6.891,6.891,0,0,0,1.672-6.044,7.825,7.825,0,0,0-3.916-5.118c-1.488-.714-5.215-.746-9.93-.713-1.7.01-3.172.021-3.936-.045-4.111-.361-7.727-5.076-10.121-8.2l-.289-.377a1,1,0,0,0-1.585,1.22l.287.375c2.607,3.4,6.546,8.532,11.533,8.97.859.076,2.373.065,4.125.053,3.13-.025,7.861-.056,9.051.516a5.88,5.88,0,0,1,2.827,3.743,4.955,4.955,0,0,1-1.257,4.339c-1.678,2.023-5.116,2.727-9.121,2.878-.008,0-.016,0-.025,0-.029,0-.058.005-.087.007-2.967.1-6.234-.087-9.331-.271-.911-.054-1.808-.106-2.68-.151-7.5-.383-13.245-9.475-13.3-9.567a1,1,0,0,0-1.7,1.056c.255.411,6.346,10.071,14.9,10.509.866.044,1.758.1,2.663.15,1.2.071,2.417.142,3.639.2-.165.117-.33.233-.489.36a5.751,5.751,0,0,0-1.54,6.562,3.358,3.358,0,0,0,.2.391c-.032-.006-.063-.016-.1-.022-5.732-1.057-11.01-.887-14.481.467a1,1,0,1,0,.728,1.863c3.133-1.221,8.013-1.355,13.389-.363,4.764.879,7.212,5.591,8.306,8.582a.973.973,0,0,0,.027.215l.127.368c.339.985.761,2.213,1.045,3.294,1.209,4.629.133,7.506-.982,9.106a6.247,6.247,0,0,1-4.285,2.756c-2.96.27-4.505-1.379-5.835-3.107a12.964,12.964,0,0,1-1.058-1.987c-1.16-2.457-2.89-6.123-6.3-6.123q-.2,0-.4.015c-3.961.322-10.127-.755-13.763-3.384-3.3-2.386-5.38-11.107-5.556-16.225-.164-4.5.838-14.337,2.845-20.126,1.809-5.216,8.5-15.527,9.848-17.58,7.081,6.791,15.7,11.078,24.394,11.078a34.267,34.267,0,0,0,7.659-.885.97.97,0,0,0,.142.043,3.411,3.411,0,0,1,1.3.4c.017.011.028.028.046.038.071.037,7.117,3.838,7.345,11.752M238.036,83.868c-8.347,0-16.623-4.189-23.393-10.809a.983.983,0,0,0-.232-.4c-9.376-9.5-15.2-23.147-15.2-35.618,0-16.838,12.2-34.96,38.991-34.96a38,38,0,0,1,16.793,3.943,40.183,40.183,0,0,1,22.341,35.582c0,22.118-18.731,42.261-39.3,42.261" transform="translate(171 439)" fill="#1a1311"/>
    <path id="Path_83" data-name="Path 83" d="M230,116.867a3.358,3.358,0,0,1-.2-.391,5.751,5.751,0,0,1,1.541-6.562c.158-.127.324-.243.489-.36-1.223-.056-2.444-.127-3.64-.2-.9-.054-1.8-.106-2.663-.15A16.207,16.207,0,0,1,216,104.889c-.389-.257,4.338,5.053,7.3,5.723,4.4,1,4.618,2.212,4.4,3.318-.125.63-.469.752-1.282,1.34a.66.66,0,0,0,.027,1.091c1.129.114,2.282.267,3.462.484.032.006.063.016.1.022" transform="translate(171 439)" fill="#909192"/>
    <path id="Path_84" data-name="Path 84" d="M237.783,120.088a13.2,13.2,0,0,1-2.227-.206,17.766,17.766,0,0,1,3.951,6.252,4.476,4.476,0,0,1,3.649.986c.546.481.974,1.456,1.743,3.282,1.4,3.326,3.532,8.372,6.662,8.159,4.835-.3,7.108-3,7.622-5.429a23.468,23.468,0,0,0,.074-6.474c-.366-1.7-.7-2.995-.7-2.995s.58,5.309-.415,6.968c-1.018,1.7-2.5,2.4-4.59,3.152-3.705,1.327-4.888-.722-6.083-2.765-.857-1.465-1.6-4.286-3.511-6.608-1.295-1.576-3.484-.5-4.231-1.991-.376-.753,1.162-1.244,1.162-1.244,5.222-1.438,6.908-3.742,7.453-5.055a16.4,16.4,0,0,1-10.009,3.951c-.17.011-.353.017-.547.017" transform="translate(171 439)" fill="#909192"/>
    <path id="Path_85" data-name="Path 85" d="M237.734,114.981c-2.643-.249-3.567-.3-4.092-2.323-.242-.93.589-1.853,1.5-2.556a8.164,8.164,0,0,0-2.559,1.374,3.747,3.747,0,0,0-.948,4.221c.67,1.584,4.384,2.524,6.563,2.378,6.452-.421,9.5-3.866,11.515-6.267.24-.378.377-.615.377-.615s-4.147,4.562-12.359,3.788" transform="translate(171 439)" fill="#909192"/>
    <path id="Path_86" data-name="Path 86" d="M228.765,136.585c-2.125-2.617-1.909-6.68-5.58-7.9-1.981-.66-4.192-.235-6.246-.345a25.585,25.585,0,0,1-5.422-.866c-3.519-.972-6.989-2.842-8.977-6.01-.03-.048-.081-.128-.13-.2.958,3.2,2.322,6.072,4.008,7.291,3.635,2.629,9.8,3.705,13.763,3.383q.2-.015.4-.015c3.414,0,5.145,3.666,6.3,6.123a12.828,12.828,0,0,0,1.058,1.987c1.329,1.728,2.874,3.377,5.835,3.108a6.256,6.256,0,0,0,4.285-2.757c1.1-1.581,2.157-4.417,1.014-8.953a8.057,8.057,0,0,1,.1,1.25c-.053,5.223-7,8.1-10.407,3.911" transform="translate(171 439)" fill="#909192"/>
    <path id="Path_87" data-name="Path 87" d="M214.643,73.058c6.77,6.62,15.046,10.809,23.393,10.809,10.463,0,20.445-5.219,27.733-13.254C259.33,75.87,249.021,79.1,238.541,79.1c-11.91,0-22.151-4.532-34.836-22.231a54.064,54.064,0,0,0,10.706,15.79,1,1,0,0,1,.232.4" transform="translate(171 439)" fill="#909192"/>
    <path id="Path_88" data-name="Path 88" d="M233.826,51.373c-.009,11.362-3.687,14.248-14.491,11.124-6.317-1.827-11.427-5.373-14.168-11.587-3.1-7.025.43-13.99,7.863-15.8,10.358-2.528,20.8,5.642,20.8,16.267" transform="translate(171 439)" fill="#1c1819"/>
    <path id="Path_89" data-name="Path 89" d="M246.546,61.26c-.664,4.728-.332,5.475,2.5,6.864,13.01,4.666,19.8-.822,20.269-1.306a10.054,10.054,0,0,0,3.138-8.074c-.158-2.213-2.18-5.523-3.9-7.43-7.206-8-20.183-6.146-22.008,9.946" transform="translate(171 439)" fill="#1a1311"/>
    <path id="Path_90" data-name="Path 90" d="M215.347,52.86c-.23,1.62-1.2,2.173-2.489,1.708-2.276-.82-4.179-2.238-4.367-4.855-.1-1.428,1.074-2.073,2.4-1.588,2.274.833,4,2.286,4.457,4.735" transform="translate(171 439)" fill="#e7e5e5"/>
    <path id="Path_91" data-name="Path 91" d="M250.372,58.868c-1.075.34-1.343,1.025-.882,1.794a3.842,3.842,0,0,0,3.788,2.213,1.052,1.052,0,0,0,.811-1.723,4.212,4.212,0,0,0-3.717-2.284" transform="translate(171 439)" fill="#e7e5e5"/>
    <path id="Path_92" data-name="Path 92" d="M235.762,77.413c-4.455,0-6.764-4.335-6.859-4.52a1,1,0,0,1,1.772-.926c.03.056,1.868,3.446,5.087,3.446,4.059,0,5.947-1.227,6.57-1.754a1,1,0,0,1,1.292,1.526c-.983.832-3.311,2.228-7.862,2.228" transform="translate(171 439)" fill="#1a1311"/>
    <path id="Path_93" data-name="Path 93" d="M247.111,85.422a3.393,3.393,0,0,0-1.3-.4.971.971,0,0,1-.142-.043,34.267,34.267,0,0,1-7.659.885c-8.694,0-17.313-4.288-24.394-11.079-.358.546-1.1,1.686-2.022,3.149.006,0,4.9.926,7.315,2.75s7.89,6.8,8.8,7.465,6.1,3.468,10.533,3.152c4.667-.332,9.617-1.078,10.723-2.571A2.8,2.8,0,0,0,249.327,87a14.066,14.066,0,0,0-2.17-1.545c-.018-.01-.029-.028-.046-.038" transform="translate(171 439)" fill="#909192"/>
  </g>
</svg>
