<?xml version="1.0" encoding="utf-8"?>
<!-- Generator: Adobe Illustrator 26.0.2, SVG Export Plug-In . SVG Version: 6.00 Build 0)  -->
<svg version="1.1" id="圖層_1" xmlns="http://www.w3.org/2000/svg" xmlns:xlink="http://www.w3.org/1999/xlink" x="0px" y="0px"
	 viewBox="0 0 80.9 107.3" style="enable-background:new 0 0 80.9 107.3;" xml:space="preserve">
<style type="text/css">
	.st0{fill:#FFFFFF;}
	.st1{fill:#351C43;}
	.st2{opacity:0.3;}
	.st3{fill:#671E4C;}
	.st4{opacity:0.35;}
	.st5{fill:#339CD8;}
	.st6{opacity:0.7;}
	.st7{opacity:0.5;}
	.st8{fill:#101A28;}
</style>
<g>
	<g>
		<g>
			<g>
				<path class="st0" d="M35.6,79.9h24.8c4.3,0,7.9-3.6,7.9-7.9V49.7c0-4.3-3.6-7.9-7.9-7.9H35.6c-4.3,0-7.9,3.6-7.9,7.9V72
					C27.7,76.4,31.3,79.9,35.6,79.9z"/>
			</g>
		</g>
		<g>
			<g>
				<path class="st0" d="M68.4,49.6v22.5c0,4.3-3.6,7.8-8,7.8H35.7c-4.4,0-8-3.5-8-7.8V49.6c0-1.2,0.3-2.4,0.8-3.4
					c0.4-0.8,0.9-1.5,1.5-2.1c1.4-1.3,3.2-2.2,5.3-2.3c0.1,0,0.3,0,0.4,0h24.6c0,0,0,0,0,0c3.2,0,6,1.9,7.3,4.6
					c0.1,0.3,0.3,0.6,0.4,0.9C68.2,48,68.4,48.8,68.4,49.6z"/>
			</g>
		</g>
		<g>
			<g>
				<path class="st1" d="M60.5,41.8c4.3,0,7.9,3.6,7.9,7.9V72c0,4.3-3.6,7.9-7.9,7.9H35.6c-4.3,0-7.9-3.6-7.9-7.9V49.7
					c0-4.3,3.6-7.9,7.9-7.9H60.5 M60.5,40.2H35.6c-5.3,0-9.5,4.3-9.5,9.5V72c0,5.3,4.3,9.5,9.5,9.5h24.8c5.3,0,9.5-4.3,9.5-9.5V49.7
					C70,44.5,65.7,40.2,60.5,40.2L60.5,40.2z"/>
			</g>
		</g>
	</g>
	<g class="st2">
		<g>
			<path class="st3" d="M67.5,50.8c0,0-0.1,0-0.1,0.1c0-0.1,0-0.1,0-0.2c0-0.1,0-0.1,0-0.2c0,0,0,0,0-0.1c0,0,0,0,0,0c0,0,0,0,0-0.1
				c0,0,0,0,0-0.1c0,0,0,0,0,0c0,0,0,0,0-0.1c0,0,0,0,0-0.1c0,0,0,0,0,0.1c0,0,0,0.1,0,0.2C67.5,50.5,67.5,50.6,67.5,50.8z"/>
		</g>
	</g>
	<g>
		<g>
			<path class="st0" d="M36.9,43.2L36.2,45l-0.6,1.5l-0.5,1.3l-2.9,7.6c-0.5,0.1-0.9,0.2-1.4,0.3C24.7,57,16.5,55.6,5.4,43.1
				c-1.7-2-5.9-3.1-4.1-7.6c1.9-4.5,4.5-4,4.5-4s-0.7-2.2,0.8-3.4c2.1-1.6,4.6,0.8,7,2.5c0.3,0.2,0.2-3,2.5-2.9
				c3.3,0.1,3.1,7.6,3.1,7.6s4.4,4.8,11.2,6.9c1.7,0.5,3.6,0.9,5.6,1C36.2,43.2,36.6,43.2,36.9,43.2z"/>
		</g>
	</g>
	<g class="st4">
		<g>
			<path class="st1" d="M32.3,55.3L32.3,55.3c-6.3,1.8-14.9,1.3-26.9-12.2c-1.7-2-5.9-3.1-4.1-7.6c1.1-2.7,2.5-3.6,3.5-3.9
				c-0.3,0.5-0.5,1.1-0.9,1.8c-2.1,3.8,3.7,7.4,5.3,6.8c1-0.4,1.3-0.8,1.9-2.7c0.6-2,1.6-3,1.7-2.8c0.5,0.6,0.5,7.6,1.7,10.1
				c3,6.3,11,9.4,16.8,9.1C32,53.8,32.5,54.6,32.3,55.3z"/>
		</g>
	</g>
	<g>
		<g>
			<path class="st1" d="M27.2,56.9c-5.5,0-12.9-2.6-22.4-13.2c-0.4-0.4-0.9-0.8-1.5-1.3c-1.8-1.4-4.3-3.2-2.7-7.1
				c1.4-3.3,3.2-4.2,4.3-4.4c-0.1-0.9,0.1-2.4,1.3-3.3c2.3-1.7,4.7,0.1,6.9,1.7c0.1,0.1,0.1,0.1,0.2,0.2c0.3-1,1-2.5,2.9-2.5
				c3.6,0.2,3.8,6.4,3.8,8c1.3,1.3,8,7.6,16.9,7.4c0,0,0,0,0,0c0.4,0,0.8,0.4,0.8,0.8c0,0.4-0.3,0.8-0.8,0.8
				c-10.7,0.1-18-7.8-18.4-8.2c-0.1-0.2-0.2-0.4-0.2-0.6c0-2.2-0.5-6.7-2.3-6.7c-0.8,0-1.1,0.6-1.4,1.8c-0.1,0.5-0.2,0.9-0.7,1.1
				c-0.3,0.1-0.6,0.1-0.8-0.1c-0.4-0.3-0.7-0.5-1.1-0.8c-2.3-1.7-3.8-2.7-5-1.7c-1,0.8-0.5,2.5-0.5,2.5c0.1,0.3,0,0.6-0.2,0.8
				c-0.2,0.2-0.5,0.3-0.8,0.2c-0.1,0-2-0.3-3.6,3.5c-1.1,2.7,0.4,3.9,2.2,5.2c0.6,0.5,1.3,0.9,1.8,1.5c12.3,13.8,20.8,13.4,26.1,12
				c0.4-0.1,0.9,0.1,1,0.6c0.1,0.4-0.1,0.9-0.6,1C31,56.5,29.2,56.9,27.2,56.9z"/>
		</g>
	</g>
	<g>
		<g>
			<path class="st1" d="M14.6,30.5L14.4,33c0,0.2-0.1,0.3-0.1,0.4l0,0l0,0c0,0-0.1,0.1-0.2,0.2c-0.1,0.1-0.1,0.2-0.2,0.3
				c-0.1,0.2-0.2,0.4-0.3,0.5c-0.2,0.4-0.3,0.8-0.3,1.2c0,0.2,0,0.4,0,0.6c0,0.2,0,0.4,0.1,0.6c0.1,0.4,0.3,0.8,0.5,1.2l0,0
				c0.1,0.2,0,0.4-0.1,0.5c-0.2,0.1-0.4,0.1-0.5-0.1c-0.3-0.4-0.6-0.8-0.8-1.3c-0.1-0.2-0.2-0.5-0.2-0.8c0-0.3-0.1-0.5-0.1-0.8
				c0-0.5,0.1-1.1,0.2-1.6c0.1-0.3,0.2-0.5,0.3-0.8c0.1-0.1,0.1-0.2,0.2-0.4c0.1-0.1,0.1-0.2,0.2-0.4l0,0L12.8,33l0.2-2.6
				c0-0.4,0.4-0.8,0.9-0.7C14.3,29.6,14.6,30,14.6,30.5L14.6,30.5z"/>
		</g>
	</g>
	<g>
		<g>
			<path class="st1" d="M19.9,55.2c-0.2,0-0.3-0.1-0.5-0.2c-0.2-0.3-0.2-0.7,0-0.9c4.3-4.1,5-14.1,5-14.2c0-0.4,0.3-0.6,0.7-0.6
				c0.4,0,0.6,0.3,0.6,0.7c0,0.4-0.7,10.6-5.4,15C20.2,55.1,20.1,55.2,19.9,55.2z"/>
		</g>
	</g>
	<g>
		<g>
			<path class="st0" d="M75.5,76.1c-0.3,7.6-2.7,10.6-5.5,11.6c-0.6,0.2-1.3,0.3-1.9,0.3c-2-0.1-3.5-0.9-3.5-0.9s-0.7,0.3-1.4,0.2
				c-5.3-0.5-4.1-3.6-3-8.7c0.3-1.4,0.6-3,0.7-4.8c0.6-8.2-1.7-16-1.7-16l0.9-7.4l1-8.2c0,0,0.5,0.5,1.4,1.4
				c0.7,0.8,1.7,1.9,2.8,3.3C69.7,52.6,76.1,63,75.5,76.1z"/>
		</g>
	</g>
	<g>
		<g>
			<path class="st1" d="M68.2,88.8c-0.1,0-0.1,0-0.2,0c-1.6-0.1-2.9-0.6-3.5-0.9c-0.4,0.1-0.9,0.2-1.4,0.2c-2-0.2-3.3-0.7-4-1.7
				c-1.1-1.6-0.6-3.8,0-6.6c0.4-1.7,0.8-3.7,1-5.9c0.6-8-1.6-15.6-1.7-15.7c-0.1-0.4,0.1-0.9,0.5-1c0.4-0.1,0.9,0.1,1,0.5
				c0.1,0.3,2.3,8,1.7,16.3c-0.2,2.3-0.6,4.4-1,6.1c-0.5,2.4-1,4.4-0.3,5.4c0.4,0.6,1.4,1,2.8,1.1c0.4,0,0.9-0.1,1-0.2l0.4-0.1
				l0.3,0.2c0,0,1.3,0.8,3.1,0.8c0.5,0,1.1-0.1,1.6-0.3c3-1,4.7-4.7,5-10.9c0.5-10-3.4-18.5-6.7-23.9c-3.6-5.8-7.4-9.3-7.4-9.3
				c-0.3-0.3-0.4-0.8-0.1-1.1c0.3-0.3,0.8-0.4,1.1-0.1c0.2,0.1,4,3.6,7.7,9.6c3.5,5.5,7.5,14.3,7,24.8c-0.3,7-2.3,11.1-6.1,12.3
				C69.6,88.6,68.9,88.8,68.2,88.8z"/>
		</g>
	</g>
	<g>
		<g>
			<path class="st1" d="M60.7,66.8c-0.3,0-0.5-0.2-0.6-0.4c-0.1-0.3,0.1-0.7,0.4-0.8c0.4-0.2,10.7-3.8,14.4-0.5
				c0.3,0.2,0.3,0.6,0,0.9c-0.2,0.3-0.6,0.3-0.9,0c-2.6-2.4-10.4-0.3-13.1,0.7C60.9,66.8,60.8,66.8,60.7,66.8z"/>
		</g>
	</g>
	<g>
		<g>
			<path class="st0" d="M66.5,78.6H29.3c-0.1-3-0.1-5.9,0-8.7c0.1-2.6,0.3-5,0.5-7.4c0.2-2.1,0.5-4.2,0.8-6.1c0-0.3,0.1-0.5,0.1-0.7
				c0.8-3.4,2.8-5.8,4.2-8.1c0.2-0.4,0.5-0.8,0.6-1.2c0.2-0.4,0.4-0.9,0.5-1.4c0,0,0-0.1,0-0.1c0.1-0.5,0-1.1-0.3-1.8
				c-0.5-1.4-1.4-3-1.2-3.7c0.4-1.3,0.8-2.3,1.1-3c0.3-0.8,0.5-1.2,0.5-1.2h23.2c0,0,0.2,0.4,0.5,1.2c0.3,0.8,0.8,2.1,1.3,3.7
				c0.3,1,0.7,2.1,1.1,3.4c0.3,0.9,0.5,1.9,0.8,3c0.1,0.5,0.3,1,0.4,1.6c0.6,2.5,1.2,5.4,1.7,8.6c0.3,1.8,0.5,3.7,0.7,5.7
				c0.2,2.3,0.4,4.8,0.5,7.4C66.6,72.7,66.7,75.6,66.5,78.6z"/>
		</g>
	</g>
	<g>
		<g>
			<path class="st1" d="M32.4,50c0,0.6,0,1.2,0,1.8c0,0.6-0.1,1.2-0.1,1.8c-0.1,0.6-0.1,1.2-0.2,1.8c-0.1,0.6-0.2,1.2-0.3,1.8
				L31.5,58c0,0.3-0.1,0.6-0.1,0.9c-0.1,0.6-0.2,1.2-0.2,1.8c-0.1,0.6-0.1,1.2-0.2,1.8c-0.1,0.6-0.1,1.2-0.2,1.8
				c-0.2,2.4-0.3,4.8-0.4,7.2c-0.1,1.2-0.1,2.4-0.2,3.6c-0.1,1.2-0.1,2.4-0.8,3.6c0,0.1-0.1,0.1-0.2,0.1c0,0,0,0-0.1-0.1
				c-0.6-1.2-0.6-2.4-0.6-3.6c0-1.2,0-2.4,0.1-3.6c0.1-2.4,0.4-4.8,0.6-7.2c0.1-0.6,0.1-1.2,0.2-1.8c0.1-0.6,0.1-1.2,0.2-1.8
				c0.1-0.6,0.1-1.2,0.2-1.8l0.2-1.8c0.1-0.6,0.2-1.2,0.3-1.8c0.1-0.6,0.3-1.2,0.4-1.8c0.4-1.2,0.8-2.3,1.4-3.4c0-0.1,0.1-0.1,0.2,0
				C32.4,49.9,32.4,49.9,32.4,50L32.4,50z"/>
		</g>
	</g>
	<g>
		<g>
			<path class="st1" d="M66.4,78.6c-0.7-1.1-0.7-2.2-0.8-3.2c-0.1-1.1-0.1-2.2-0.2-3.2c-0.1-2.2-0.1-4.3-0.3-6.5
				c-0.1-1.1-0.2-2.1-0.4-3.2c-0.2-1.1-0.3-2.1-0.5-3.2c-0.1-0.5-0.2-1.1-0.3-1.6c-0.1-0.5-0.1-1.1-0.2-1.6
				c-0.1-0.5-0.1-1.1-0.1-1.6c0-0.6,0-1.1,0-1.7l0,0c0-0.1,0.1-0.1,0.1-0.1c0,0,0.1,0,0.1,0.1c0.6,1,1,2,1.3,3.1
				c0.3,1,0.5,2.1,0.7,3.2c0.1,1.1,0.3,2.2,0.5,3.3c0.2,1.1,0.3,2.2,0.4,3.3c0.2,2.2,0.4,4.4,0.5,6.5c0,1.1,0.1,2.2,0,3.3
				c0,1.1,0,2.2-0.6,3.3C66.6,78.7,66.5,78.7,66.4,78.6C66.5,78.7,66.4,78.6,66.4,78.6z"/>
		</g>
	</g>
	<g class="st4">
		<g>
			<path class="st1" d="M66.5,71.7c-2.3,0.2-5.1,0.3-7.3-0.3v1.2c0,1.7-1.4,3.1-3.1,3.1H39.2c-1.7,0-3.1-1.4-3.1-3.1v-1
				c-2.2,0.3-4.8,0.2-6.8,0c0.1-2.1,0.3-4,0.5-5.9c1.8,0.1,4.2,0.1,6.2-0.1v-2.2c0-1.7,1.4-3.1,3.1-3.1h16.9c1,0,1.9,0.5,2.5,1.2
				c0.4,0.5,0.6,1.2,0.6,1.9v2.1c2.1,0.3,4.7,0.3,6.8,0.2C66.3,67.7,66.4,69.7,66.5,71.7z"/>
		</g>
	</g>
	<g>
		<g>
			<path class="st0" d="M39.4,68.5c-2.3,0.9-5.9,0.7-8.4,0.4c-1.5-0.2-2.5-1.5-2.3-3l0,0c0.2-1.3,1.4-2.3,2.7-2.2
				c2.3,0.1,5.7,0.2,7.9-0.3"/>
		</g>
	</g>
	<g class="st4">
		<g>
			<path class="st1" d="M39.4,68.5c-2.3,0.9-5.9,0.7-8.4,0.4c-1.5-0.2-2.5-1.5-2.3-3c0-0.3,0.1-0.6,0.3-0.8c0.4,0.7,1.1,1.3,2,1.4
				c2.4,0.3,6,0.5,8.4-0.4L39.4,68.5z"/>
		</g>
	</g>
	<g>
		<g>
			<path class="st1" d="M34.8,70c-1.4,0-2.7-0.1-3.8-0.3c-0.9-0.1-1.7-0.6-2.3-1.3c-0.6-0.7-0.8-1.7-0.7-2.6c0.3-1.8,1.8-3,3.6-2.9
				c3.4,0.2,6.1,0,7.7-0.3c0.3-0.1,1.3-0.1,1.8,1.6c0.5,1.6,0.4,4.3-1.3,5.1l0,0C38.3,69.8,36.5,70,34.8,70z M39.4,68.5L39.4,68.5
				L39.4,68.5z M31.3,64.5c-0.9,0-1.7,0.7-1.8,1.6c-0.1,0.5,0.1,1,0.4,1.4c0.3,0.4,0.7,0.6,1.2,0.7c3.5,0.4,6.3,0.3,8-0.4
				c0.4-0.1,0.5-0.7,0.5-1c0.2-1-0.1-2.2-0.3-2.6C37.1,64.7,33.8,64.6,31.3,64.5C31.4,64.5,31.4,64.5,31.3,64.5z"/>
		</g>
	</g>
	<g>
		<g>
			<path class="st0" d="M57.1,68.5c2.3,0.9,5.9,0.7,8.4,0.4c1.5-0.2,2.5-1.5,2.3-3l0,0c-0.2-1.3-1.4-2.3-2.7-2.2
				c-2.3,0.1-5.7,0.2-7.9-0.3"/>
		</g>
	</g>
	<g class="st4">
		<g>
			<path class="st1" d="M65.5,69c-2.4,0.3-6,0.5-8.4-0.4l0-2.5c2.3,0.9,5.9,0.7,8.4,0.4c0.9-0.1,1.6-0.6,2-1.4
				c0.1,0.3,0.2,0.5,0.3,0.8C68,67.4,67,68.8,65.5,69z"/>
		</g>
	</g>
	<g>
		<g>
			<path class="st1" d="M61.8,70c-1.8,0-3.5-0.2-4.9-0.7l0,0c-1.8-0.7-1.8-3.4-1.3-5.1c0.5-1.7,1.5-1.6,1.8-1.6
				c1.6,0.4,4.3,0.5,7.7,0.3c1.8-0.1,3.3,1.2,3.6,2.9c0.1,0.9-0.1,1.8-0.7,2.6c-0.6,0.7-1.4,1.2-2.3,1.3C64.4,69.9,63.1,70,61.8,70z
				 M57.4,67.8c1.7,0.7,4.5,0.8,8,0.4c0.5-0.1,0.9-0.3,1.2-0.7c0.3-0.4,0.4-0.9,0.4-1.4c-0.1-0.9-0.9-1.6-1.9-1.6
				c-2.4,0.1-5.7,0.1-7.9-0.3c-0.2,0.4-0.5,1.6-0.3,2.6C56.9,67,57.1,67.6,57.4,67.8L57.4,67.8z"/>
		</g>
	</g>
	<g>
		<g>
			<path class="st0" d="M58,61.7v8.2c0,1.5-1.2,2.8-2.8,2.8H40.2c-1.5,0-2.8-1.2-2.8-2.8v-8.2c0-1.5,1.2-2.8,2.8-2.8h15.1
				c0.9,0,1.7,0.4,2.2,1.1C57.8,60.5,58,61.1,58,61.7z"/>
		</g>
	</g>
	<g class="st4">
		<g>
			<path class="st1" d="M58,61.7v8.2c0,1.5-1.2,2.8-2.8,2.8H40.2c-1.5,0-2.8-1.2-2.8-2.8v-3.1c2.3,2.3,6.7,3.8,10.8,3.8
				c1.3,0,2.4-1,2.5-2.3c0,0,0,0,0,0c0.1-1.2,1-2.1,2.2-2.2c1.3-0.1,2.4,0.9,2.5,2.1c2-2.4,1.4-6.7,2-8.2C57.8,60.5,58,61.1,58,61.7
				z"/>
		</g>
	</g>
	<g>
		<g>
			<path class="st1" d="M55.3,73.5H40.2c-2,0-3.6-1.6-3.6-3.6v-8.2c0-2,1.6-3.6,3.6-3.6h15.1c2,0,3.6,1.6,3.6,3.6v8.2
				C58.8,71.9,57.2,73.5,55.3,73.5z M40.2,59.7c-1.1,0-2,0.9-2,2v8.2c0,1.1,0.9,2,2,2h15.1c1.1,0,2-0.9,2-2v-8.2c0-1.1-0.9-2-2-2
				H40.2z"/>
		</g>
	</g>
	<g>
		<g>
			<circle class="st5" cx="53.1" cy="65.8" r="2.4"/>
		</g>
	</g>
	<g class="st6">
		<g>
			<path class="st0" d="M55.5,65.8c0,0.2,0,0.3,0,0.5c-0.2-1.1-1.2-1.9-2.3-1.9c-1.2,0-2.1,0.8-2.3,1.9c0-0.2,0-0.3,0-0.5
				c0-1.3,1.1-2.4,2.4-2.4C54.4,63.4,55.5,64.5,55.5,65.8z"/>
		</g>
	</g>
	<g class="st4">
		<g>
			<path class="st1" d="M55.5,65.8c0,1.3-1.1,2.4-2.4,2.4c-1.3,0-2.4-1.1-2.4-2.4c0-0.3,0.1-0.6,0.2-0.9c0.3,0.9,1.2,1.5,2.2,1.5
				c1,0,1.9-0.6,2.2-1.5C55.4,65.2,55.5,65.5,55.5,65.8z"/>
		</g>
	</g>
	<g>
		<g>
			<path class="st1" d="M53.1,68.8c-1.6,0-3-1.3-3-3s1.3-3,3-3c1.6,0,3,1.3,3,3S54.7,68.8,53.1,68.8z M53.1,64c-1,0-1.8,0.8-1.8,1.8
				c0,1,0.8,1.8,1.8,1.8s1.8-0.8,1.8-1.8C54.9,64.8,54.1,64,53.1,64z"/>
		</g>
	</g>
	<g>
		<g>
			<path class="st1" d="M46.3,73.3c-0.3,0-0.6-0.3-0.6-0.6v-4.4c0-0.7-0.4-1.5-1-1.9l-0.6-0.5c-0.9-0.7-1.4-1.7-1.4-2.9v-4.1
				c0-0.3,0.3-0.6,0.6-0.6c0.3,0,0.6,0.3,0.6,0.6v4.1c0,0.7,0.4,1.5,1,1.9l0.6,0.5c0.9,0.7,1.4,1.7,1.4,2.9v4.4
				C46.9,73,46.6,73.3,46.3,73.3z"/>
		</g>
	</g>
	<g class="st4">
		<g>
			<path class="st1" d="M66,47.7c-0.5,0.5-1.1,1-1.7,1.4c-1.2,0.9-2.5,1.7-3.8,2.4c-4.3,2.2-9.4,3.1-14.5,2.4
				c-4.6-0.7-8.7-2.6-12.1-5.3c-0.1,0-0.1-0.1-0.2-0.1c-2-1.6-3.6-3.6-5-5.7c1.8,0.6,3.9,1,6,1c-0.5-1.5-1.5-3.2-1.2-4
				c0.5-1.3,0.9-2.4,1.2-3.2c0.3-0.9,0.5-1.3,0.5-1.3h24.7c0,0,0.2,0.4,0.5,1.3c0.4,0.9,0.9,2.2,1.4,3.9c0.4,1.1,0.7,2.3,1.1,3.7
				C63.8,45,64.9,46.2,66,47.7z"/>
		</g>
	</g>
	<g>
		<g>
			<g>
				<path class="st0" d="M72.8,36.8L72.8,36.8c-0.3,0-0.5-0.3-0.4-0.6l2-14.4c0-0.3,0.3-0.5,0.6-0.4h0c2.9,0.4,4.9,3.1,4.5,6
					l-0.7,4.9C78.4,35.2,75.7,37.2,72.8,36.8z"/>
			</g>
			<g>
				<path class="st1" d="M73.5,37c-0.3,0-0.5,0-0.8-0.1c-0.2,0-0.3-0.1-0.4-0.3c-0.1-0.1-0.2-0.3-0.1-0.5l2-14.4
					c0-0.2,0.1-0.3,0.3-0.4c0.1-0.1,0.3-0.2,0.5-0.1c1.4,0.2,2.7,1,3.6,2.1c0.9,1.2,1.2,2.6,1,4l-0.7,4.9C78.6,35,76.2,37,73.5,37z
					 M74.9,21.5c-0.1,0-0.1,0-0.2,0.1c-0.1,0.1-0.1,0.1-0.1,0.2l-2,14.4c0,0.1,0,0.2,0.1,0.3c0.1,0.1,0.1,0.1,0.2,0.1
					c2.8,0.4,5.4-1.6,5.8-4.4l0.7-4.9C79.7,24.5,77.8,21.9,74.9,21.5C74.9,21.5,74.9,21.5,74.9,21.5z"/>
			</g>
		</g>
		<g class="st4">
			<g>
				<path class="st1" d="M79.1,30l-0.3,2.3c-0.4,2.9-3.1,4.9-6,4.5c-0.3,0-0.5-0.3-0.4-0.6l0.5-3.8c0.1,0.2,0.2,0.3,0.4,0.4l0.3,0
					C76,33.1,78.1,31.9,79.1,30z"/>
			</g>
		</g>
		<g>
			<g>
				<path class="st1" d="M73.5,37.7c-0.3,0-0.6,0-0.9-0.1c-0.4-0.1-0.7-0.2-0.9-0.5c-0.2-0.3-0.3-0.7-0.3-1l2-14.4
					c0.1-0.4,0.2-0.7,0.5-0.9c0.3-0.2,0.7-0.3,1-0.3c1.6,0.2,3.1,1.1,4.1,2.4s1.4,2.9,1.2,4.6l-0.7,4.9
					C79.2,35.5,76.6,37.7,73.5,37.7z M73.3,36c2.3,0.1,4.3-1.5,4.7-3.8l0.7-4.9c0.3-2.3-1.2-4.5-3.4-5L73.3,36z"/>
			</g>
		</g>
		<g>
			<g>
				<path class="st0" d="M27.3,14.6L27.3,14.6c0.3,0,0.5,0.3,0.4,0.6l-2,14.4c0,0.3-0.3,0.5-0.6,0.4h0c-2.9-0.4-4.9-3.1-4.5-6
					l0.7-4.9C21.7,16.3,24.4,14.2,27.3,14.6z"/>
			</g>
			<g>
				<path class="st1" d="M25.2,30.2C25.2,30.2,25.2,30.2,25.2,30.2c-1.5-0.2-2.8-1-3.7-2.1c-0.9-1.2-1.2-2.6-1-4l0.7-4.9
					c0.2-1.4,1-2.7,2.1-3.6c1.2-0.9,2.6-1.2,4-1l0,0c0.2,0,0.3,0.1,0.4,0.3c0.1,0.1,0.2,0.3,0.1,0.5l-2,14.4
					C25.8,30,25.6,30.2,25.2,30.2z M26.6,14.7c-1.1,0-2.2,0.4-3.1,1c-1.1,0.8-1.8,2-2,3.4l-0.7,4.9c-0.2,1.4,0.2,2.7,1,3.8
					c0.8,1.1,2,1.8,3.4,2c0.2,0,0.4-0.1,0.4-0.3l2-14.4c0-0.1,0-0.2-0.1-0.3c-0.1-0.1-0.1-0.1-0.2-0.1l0,0
					C27.1,14.8,26.8,14.7,26.6,14.7z"/>
			</g>
		</g>
		<g class="st4">
			<g>
				<path class="st1" d="M26.3,25.6l-0.6,4c0,0.3-0.3,0.5-0.6,0.4c-1.5-0.2-2.8-1.1-3.6-2.2c-0.7-1.1-1.1-2.4-0.9-3.8l0.3-2.1
					c0.6,1.9,2.2,3.5,4.4,3.8l0.5,0.1C26,25.9,26.2,25.8,26.3,25.6z"/>
			</g>
		</g>
		<g>
			<g>
				<path class="st1" d="M25.2,30.9c-0.1,0-0.1,0-0.2,0c-1.6-0.2-3.1-1.1-4.1-2.4c-1-1.3-1.4-2.9-1.2-4.6l0.7-4.9
					c0.2-1.6,1.1-3.1,2.4-4.1c1.3-1,2.9-1.4,4.6-1.2h0c0.4,0.1,0.7,0.2,0.9,0.5s0.3,0.7,0.3,1l-2,14.4
					C26.5,30.4,25.9,30.9,25.2,30.9z M26.6,15.5c-1,0-1.9,0.3-2.7,0.9c-0.9,0.7-1.6,1.8-1.7,2.9l-0.7,4.9c-0.2,1.2,0.1,2.3,0.9,3.3
					c0.6,0.9,1.5,1.4,2.6,1.7l1.9-13.7C26.8,15.5,26.7,15.5,26.6,15.5z M27.2,15.5L27.2,15.5L27.2,15.5z"/>
			</g>
		</g>
		<g>
			<g>
				<circle class="st0" cx="50.1" cy="25.7" r="24.8"/>
			</g>
			<g>
				<path class="st1" d="M50.1,50.7c-1.7,0-3.5-0.2-5.2-0.6C31.4,47.3,22.7,34,25.6,20.5C28.5,7,41.8-1.6,55.3,1.3
					c13.5,2.9,22.1,16.2,19.2,29.7l0,0C72,42.7,61.6,50.7,50.1,50.7z M50.1,1C38.7,1,28.4,9,25.9,20.5c-2.8,13.3,5.7,26.5,19,29.3
					c13.3,2.8,26.5-5.7,29.3-19c2.8-13.3-5.7-26.5-19-29.3C53.5,1.2,51.8,1,50.1,1z"/>
			</g>
		</g>
		<g class="st4">
			<g>
				<path class="st1" d="M74.8,27.5c-0.1,1.1-0.2,2.3-0.5,3.4c-2.9,13.4-16.1,22-29.5,19.1c-13.4-2.9-22-16.1-19.1-29.5
					c0.1-0.4,0.2-0.8,0.3-1.1c-0.9,12.2,7.3,23.4,19.6,26.1C58.7,48.2,71.5,40.2,74.8,27.5z"/>
			</g>
		</g>
		<g>
			<g>
				<path class="st1" d="M50.1,51.4c-1.8,0-3.6-0.2-5.4-0.6c-13.9-3-22.7-16.7-19.8-30.5c3-13.9,16.7-22.7,30.5-19.8
					c13.9,3,22.7,16.7,19.8,30.5l0,0C72.6,43.1,61.9,51.4,50.1,51.4z M50.1,1.7c-11.1,0-21,7.7-23.4,19C23.9,33.6,32.1,46.4,45,49.1
					c12.9,2.8,25.7-5.5,28.5-18.4C76.3,17.8,68,5,55.1,2.3C53.4,1.9,51.7,1.7,50.1,1.7z M74.4,30.9L74.4,30.9L74.4,30.9z"/>
			</g>
		</g>
		<g>
			<g>
				<path class="st1" d="M74.1,31.5c-0.9,4.8-3.4,8.9-6.7,12c-2.5,2.4-11.6,5.5-21.7,3.6c-9.4-1.8-16.9-8.4-18.3-11.6
					c-1.9-4.2-2.6-8.9-1.6-13.7c2.5-12.6,14.4-15.7,27.8-13C66.8,11.5,76.6,18.9,74.1,31.5z"/>
			</g>
		</g>
		<g class="st7">
			<g>
				<ellipse transform="matrix(0.3663 -0.9305 0.9305 0.3663 15.9349 79.88)" class="st0" cx="66.6" cy="28.2" rx="4.4" ry="3.2"/>
			</g>
		</g>
		<g class="st7">
			<g>
				<ellipse transform="matrix(0.4913 -0.871 0.871 0.4913 -0.2997 71.5324)" class="st0" cx="61.1" cy="36" rx="2" ry="1.7"/>
			</g>
		</g>
		<g class="st4">
			<g>
				<path class="st8" d="M71.8,18.8c2.4,3.4,3.4,7.6,2.4,12.7c-0.9,4.8-3.4,8.9-6.7,12c-2.5,2.4-11.6,5.5-21.7,3.6
					c-3.6-0.7-6.9-2.1-9.7-3.7c12.5,2.1,23.6-1.8,26.7-4.8c4.3-4,7.4-9.2,8.6-15.3C71.6,21.8,71.8,20.3,71.8,18.8z"/>
			</g>
		</g>
		<g>
			<g>
				<path class="st1" d="M74.3,20.8c-0.2,0-0.4-0.1-0.6-0.3l-0.1-0.1l0-0.1C70.6,13.8,63.4,9,53.7,7.1C44,5.1,35.4,7,30.2,12.1
					l-0.1,0.1c-0.3,0.3-0.8,0.2-1.1-0.1c-0.3-0.3-0.2-0.8,0.1-1.1C34.7,5.5,43.8,3.5,54,5.5c10.2,2,17.8,7.2,21,14.1
					c0.2,0.3,0.1,0.7-0.2,1C74.6,20.8,74.4,20.8,74.3,20.8z"/>
			</g>
		</g>
		<g class="st7">
			<g>
				<path class="st0" d="M29.7,30.5c0,0-1.4-13.2,6.3-16.9s17.3-1.7,17-1.1c0,0-11.2,0.5-17.1,8.1C31.3,26.5,29.7,30.5,29.7,30.5z"
					/>
			</g>
		</g>
	</g>
	<g>
		<g>
			<circle class="st1" cx="68.1" cy="106.2" r="0.6"/>
		</g>
	</g>
	<g>
		<g class="st2">
			<g>
				<path class="st1" d="M54.6,78.1c0,0,8.5-3,15.6,4.2c6.5,6.6-1.1,13.1-1.1,13.1s2.3,9-3.7,10.2c-5.2,1-9.8-4-9.2-10.2
					c0.5-5.1,1.6-4.6,1.2-7.4c-0.5-3.1-7.2-3.9-7.2-3.9h-2.5c0,0-6.7,0.7-7.2,3.9c-0.4,2.8,0.7,2.3,1.2,7.4
					c0.6,6.2-4.1,11.2-9.2,10.2c-6.1-1.2-3.7-10.2-3.7-10.2s-7.6-6.5-1.1-13.1c7.1-7.2,15.6-4.2,15.6-4.2H54.6z"/>
			</g>
		</g>
		<g>
			<g>
				<path class="st0" d="M55.8,75.5c0,0,10.4-6,18.9,2.7c7.9,8-1.3,15.9-1.3,15.9s2.8,10.9-4.5,12.3c-6.2,1.2-11.9-4.9-11.2-12.3
					c0.6-6.1,1.9-5.6,1.4-8.9c-0.6-3.8-8.7-4.7-8.7-4.7h-3.1c0,0-8.1,0.9-8.7,4.7c-0.5,3.4,0.9,2.8,1.4,8.9
					c0.7,7.5-4.9,13.5-11.2,12.3c-7.4-1.4-4.5-12.3-4.5-12.3s-9.2-7.9-1.3-15.9c8.6-8.7,18.9-2.7,18.9-2.7"/>
			</g>
		</g>
		<g class="st4">
			<g>
				<path class="st1" d="M72.8,103.9c-0.8,1.1-2,2.1-4,2.4c-6.2,1.2-11.9-4.9-11.2-12.3c0.6-6.1,1.9-5.6,1.4-8.9
					c-0.6-3.8-8.7-4.7-8.7-4.7h-3.1c0,0-8.1,0.9-8.7,4.7c-0.5,3.4,0.9,2.8,1.4,8.9c0.7,7.5-4.9,13.5-11.2,12.3c-2-0.4-3.2-1.3-4-2.4
					c0.1,0,0.1,0,0.2,0c7.4,1.3,14.2-5.1,13.3-13.2c-0.7-6.7-2.3-6-1.7-9.7c0.7-4.1,10.4-5.1,10.4-5.1h3.6c0,0,9.7,0.9,10.4,5.1
					c0.6,3.7-1,3-1.7,9.7c-0.9,8.1,5.9,14.5,13.3,13.2C72.7,103.9,72.8,103.9,72.8,103.9z"/>
			</g>
		</g>
		<g>
			<g>
				<path class="st1" d="M55.7,75.2c1.4-1,2.9-1.6,4.5-2c0.8-0.2,1.6-0.4,2.5-0.5c0.8-0.1,1.7-0.1,2.5-0.1c0.8,0,1.7,0.2,2.5,0.4
					c0.8,0.2,1.6,0.5,2.4,0.8c1.6,0.7,3,1.7,4.3,2.8c1.3,1.1,2.4,2.4,3.2,4c0.4,0.8,0.7,1.6,0.9,2.5c0.2,0.9,0.2,1.8,0.2,2.6
					c-0.1,1.8-0.7,3.4-1.6,4.9c-0.4,0.7-0.9,1.4-1.4,2.1c-0.3,0.3-0.5,0.7-0.8,1c-0.1,0.2-0.3,0.3-0.4,0.5c-0.2,0.2-0.3,0.3-0.5,0.5
					l0.3-0.8c0.1,0.6,0.2,1.1,0.3,1.7c0.1,0.6,0.1,1.1,0.2,1.7c0.1,1.2,0.1,2.3-0.1,3.5c-0.1,0.6-0.2,1.2-0.4,1.8
					c-0.2,0.6-0.5,1.1-0.8,1.7c-0.3,0.5-0.8,1-1.3,1.4c-0.5,0.4-1.1,0.7-1.6,1c-0.6,0.2-1.2,0.4-1.8,0.5c-0.3,0.1-0.6,0.1-0.9,0.1
					c-0.3,0-0.6,0-0.9,0c-0.6,0-1.2-0.1-1.8-0.3c-0.6-0.1-1.2-0.4-1.7-0.6c-2.2-1-3.9-2.9-5-5c-1.1-2.1-1.6-4.5-1.4-6.9
					c0-0.6,0.1-1.2,0.2-1.7l0.1-0.9l0.2-0.9c0.1-0.6,0.2-1.1,0.4-1.7c0.2-0.6,0.4-1.1,0.5-1.6c0.2-0.5,0.2-0.9,0.2-1.4
					c0-0.1,0-0.2,0-0.4c0-0.1,0-0.2,0-0.4l0-0.4c0-0.1,0-0.2-0.1-0.3c-0.2-0.8-1-1.4-1.8-1.9c-0.9-0.5-1.9-0.9-2.9-1.2
					c-1-0.3-2.1-0.5-3.2-0.6l0.1,0h-3.1l0.1,0c-1,0.1-2.1,0.3-3.2,0.6c-1,0.3-2,0.7-2.9,1.2c-0.9,0.5-1.6,1.2-1.8,1.9
					c0,0.1,0,0.2-0.1,0.3l0,0.4c0,0.1,0,0.3,0,0.4c0,0.1,0,0.3,0,0.4c0,0.5,0.1,0.9,0.2,1.4c0.1,0.5,0.3,1,0.5,1.6
					c0.2,0.6,0.3,1.1,0.4,1.7l0.2,0.9l0.1,0.9c0.1,0.6,0.1,1.1,0.2,1.7c0.1,2.4-0.3,4.8-1.4,6.9c-1.1,2.1-2.8,4-5,5
					c-0.5,0.3-1.1,0.5-1.7,0.6c-0.6,0.2-1.2,0.2-1.8,0.3c-0.3,0-0.6,0-0.9,0c-0.3,0-0.6,0-0.9-0.1c-0.6-0.1-1.2-0.3-1.8-0.5
					c-0.6-0.3-1.1-0.6-1.6-1c-0.5-0.4-0.9-0.9-1.3-1.4c-0.3-0.5-0.6-1.1-0.8-1.7c-0.2-0.6-0.3-1.2-0.4-1.8c-0.2-1.2-0.2-2.4-0.1-3.5
					c0-0.6,0.1-1.2,0.2-1.7c0.1-0.6,0.2-1.1,0.3-1.7l0.3,0.8c-0.2-0.2-0.3-0.3-0.5-0.5c-0.2-0.2-0.3-0.3-0.4-0.5
					c-0.3-0.3-0.6-0.6-0.8-1c-0.5-0.7-1-1.4-1.4-2.1c-0.8-1.5-1.5-3.1-1.6-4.9c-0.1-0.9,0-1.8,0.2-2.6c0.2-0.9,0.5-1.7,0.9-2.5
					c0.8-1.5,2-2.9,3.2-4c1.3-1.1,2.7-2.1,4.2-2.8c1.5-0.7,3.2-1.2,4.9-1.3c0.9-0.1,1.7,0,2.5,0c0.8,0.1,1.7,0.2,2.5,0.5
					c0.8,0.2,1.6,0.5,2.4,0.9c0.8,0.4,1.5,0.8,2.2,1.3c0.1,0.1,0.1,0.3,0,0.4c-0.1,0.1-0.2,0.1-0.3,0.1l0,0c-1.5-0.5-3-0.9-4.6-1.2
					c-0.8-0.1-1.5-0.2-2.3-0.2c-0.4,0-0.8,0-1.1,0c-0.2,0-0.4,0-0.6,0l-0.6,0c-1.5,0.1-3,0.5-4.4,1.1c-0.7,0.3-1.4,0.7-2,1.1
					c-0.6,0.4-1.3,0.9-1.8,1.4c-1.2,1-2.2,2.2-2.9,3.5c-0.3,0.7-0.6,1.4-0.8,2.1c-0.2,0.7-0.2,1.4-0.1,2.2c0.1,1.5,0.6,2.9,1.4,4.2
					c0.4,0.7,0.8,1.3,1.3,1.9c0.2,0.3,0.5,0.6,0.8,0.9c0.1,0.1,0.3,0.3,0.4,0.4c0.1,0.1,0.3,0.3,0.4,0.4l0.4,0.3l-0.1,0.5
					c-0.1,0.5-0.2,1-0.3,1.6c-0.1,0.5-0.1,1.1-0.2,1.6c-0.1,1.1-0.1,2.1,0.1,3.2c0.1,0.5,0.2,1,0.4,1.5c0.2,0.5,0.4,0.9,0.6,1.3
					c0.3,0.4,0.6,0.8,0.9,1.1c0.4,0.3,0.8,0.5,1.2,0.7c0.5,0.2,0.9,0.3,1.4,0.4c0.2,0,0.5,0.1,0.8,0.1c0.3,0,0.5,0,0.8,0
					c0.5,0,1-0.1,1.5-0.2c0.5-0.1,1-0.3,1.4-0.5c1.8-0.9,3.3-2.4,4.3-4.3c1-1.9,1.4-4,1.2-6.1c0-0.5-0.1-1.1-0.2-1.6l-0.1-0.8
					l-0.1-0.8c-0.1-0.5-0.2-1-0.4-1.6c-0.1-0.5-0.3-1-0.5-1.6c-0.2-0.6-0.3-1.3-0.3-1.9c0-0.2,0-0.3,0-0.5c0-0.2,0-0.3,0-0.5
					l0.1-0.4c0-0.2,0.1-0.4,0.1-0.5c0.2-0.7,0.6-1.3,1.1-1.7c0.5-0.5,1-0.8,1.5-1.1c1.1-0.6,2.2-1,3.3-1.3c1.1-0.3,2.2-0.5,3.4-0.7
					l0,0h0h3.1h0l0,0c1.2,0.1,2.3,0.4,3.4,0.7c1.1,0.3,2.2,0.7,3.3,1.3c0.5,0.3,1,0.7,1.5,1.1c0.5,0.5,0.9,1.1,1.1,1.7
					c0.1,0.2,0.1,0.4,0.1,0.5l0.1,0.4c0,0.1,0,0.3,0,0.5c0,0.2,0,0.3,0,0.5c0,0.6-0.1,1.3-0.3,1.9c-0.2,0.6-0.4,1.1-0.5,1.6
					c-0.2,0.5-0.3,1-0.4,1.6l-0.1,0.8L58.6,93c-0.1,0.5-0.1,1.1-0.2,1.6c-0.1,2.1,0.3,4.2,1.2,6.1c1,1.8,2.5,3.4,4.3,4.3
					c0.5,0.2,0.9,0.4,1.4,0.5c0.5,0.1,1,0.2,1.5,0.2c0.3,0,0.5,0,0.8,0c0.3,0,0.5,0,0.8-0.1c0.5-0.1,1-0.2,1.4-0.4
					c0.4-0.2,0.9-0.4,1.2-0.7c0.4-0.3,0.7-0.7,0.9-1.1c0.3-0.4,0.5-0.9,0.6-1.3c0.2-0.5,0.3-1,0.4-1.5c0.2-1,0.2-2.1,0.1-3.2
					c0-0.5-0.1-1.1-0.2-1.6c-0.1-0.5-0.2-1.1-0.3-1.6l-0.1-0.5l0.4-0.3c0.1-0.1,0.3-0.2,0.4-0.4c0.1-0.1,0.3-0.3,0.4-0.4
					c0.3-0.3,0.5-0.6,0.8-0.9c0.5-0.6,0.9-1.2,1.3-1.9c0.8-1.3,1.3-2.8,1.4-4.2c0-0.7,0-1.5-0.2-2.2c-0.2-0.7-0.4-1.4-0.8-2.1
					c-0.7-1.3-1.7-2.5-2.9-3.5c-1.1-1-2.4-1.9-3.8-2.5c-1.4-0.6-2.9-1-4.4-1.2c-1.5-0.2-3.1-0.1-4.6,0.2c-1.5,0.3-3.1,0.7-4.5,1.3
					l0,0c-0.1,0.1-0.3,0-0.3-0.1C55.5,75.4,55.6,75.3,55.7,75.2z"/>
			</g>
		</g>
		<g>
			<g>
				<path class="st1" d="M73.7,94.8L73.1,95c-0.2,0.1-0.4,0.1-0.6,0.1c-0.4,0.1-0.8,0.1-1.2,0.1c-0.8,0-1.6-0.1-2.4-0.2
					c-0.8-0.2-1.5-0.4-2.2-0.7c-0.4-0.1-0.7-0.3-1-0.5c-0.3-0.2-0.7-0.4-1-0.5c0.4,0.1,0.7,0.2,1.1,0.4c0.4,0.1,0.7,0.2,1.1,0.3
					c0.7,0.2,1.5,0.3,2.2,0.3c0.7,0,1.5,0,2.1-0.2c0.3-0.1,0.7-0.2,1-0.3c0.2-0.1,0.3-0.1,0.5-0.2l0.5-0.3c0.4-0.2,0.9-0.1,1.1,0.3
					c0.2,0.4,0.1,0.9-0.3,1.1C73.8,94.7,73.8,94.8,73.7,94.8L73.7,94.8z"/>
			</g>
		</g>
		<g>
			<g>
				<path class="st1" d="M24.8,93.3l0.5,0.3c0.2,0.1,0.3,0.1,0.5,0.2c0.3,0.1,0.6,0.2,1,0.3c0.7,0.1,1.4,0.2,2.1,0.2
					c0.7,0,1.5-0.1,2.2-0.3c0.4-0.1,0.7-0.2,1.1-0.3c0.4-0.1,0.7-0.2,1.1-0.4c-0.3,0.2-0.7,0.4-1,0.5c-0.3,0.2-0.7,0.3-1,0.5
					c-0.7,0.3-1.4,0.5-2.2,0.7c-0.8,0.2-1.6,0.3-2.4,0.2c-0.4,0-0.8-0.1-1.2-0.1c-0.2,0-0.4-0.1-0.6-0.1l-0.6-0.2l0,0
					c-0.4-0.1-0.7-0.6-0.5-1c0.1-0.4,0.6-0.7,1-0.5C24.7,93.3,24.8,93.3,24.8,93.3z"/>
			</g>
		</g>
		<g>
			<g>
				<path class="st1" d="M77.5,88.2c0,0-0.1,0-0.1,0c-0.3-0.1-0.5-0.4-0.5-0.7c0.3-1.3,0.1-2.2-0.6-2.8c-2.9-2.5-13.2,0.7-16.9,2.1
					c-0.3,0.1-0.7,0-0.8-0.3c-0.1-0.3,0-0.7,0.3-0.8c1.4-0.5,14.2-5.3,18.1-1.9c1,0.9,1.4,2.2,1,4C78.1,88,77.8,88.2,77.5,88.2z"/>
			</g>
		</g>
		<g>
			<g>
				<path class="st1" d="M20.5,88.2c-0.3,0-0.5-0.2-0.6-0.5c-0.4-1.7,0-3.1,1-4c3.9-3.4,16.7,1.3,18.1,1.9c0.3,0.1,0.5,0.5,0.3,0.8
					c-0.1,0.3-0.5,0.5-0.8,0.3c-3.7-1.4-14-4.6-16.9-2.1c-0.7,0.6-0.9,1.5-0.6,2.8c0.1,0.3-0.1,0.6-0.5,0.7
					C20.6,88.2,20.6,88.2,20.5,88.2z"/>
			</g>
		</g>
	</g>
</g>
</svg>
