<svg xmlns="http://www.w3.org/2000/svg" xmlns:xlink="http://www.w3.org/1999/xlink" width="82.473" height="95.308" viewBox="0 0 82.473 95.308">
  <defs>
    <clipPath id="clip-path">
      <path id="Path_42" data-name="Path 42" d="M215.205,173.93v18.287l41.237-23.809V150.121Z" fill="none"/>
    </clipPath>
    <linearGradient id="linear-gradient" x1="-3.577" y1="3.023" x2="-3.56" y2="3.023" gradientUnits="objectBoundingBox">
      <stop offset="0" stop-color="#72706a"/>
      <stop offset="1" stop-color="#1a1311"/>
    </linearGradient>
    <clipPath id="clip-path-2">
      <path id="Path_43" data-name="Path 43" d="M173.97,150.121l41.235,23.808,41.237-23.808-41.236-23.808Z" fill="none"/>
    </clipPath>
    <linearGradient id="linear-gradient-2" x1="-1.776" y1="2.695" x2="-1.765" y2="2.695" gradientUnits="objectBoundingBox">
      <stop offset="0" stop-color="#43403c"/>
      <stop offset="1" stop-color="#6f6f6f"/>
    </linearGradient>
    <clipPath id="clip-path-3">
      <path id="Path_45" data-name="Path 45" d="M173.969,168.408l41.237,23.809V173.93l-41.237-23.809Z" fill="none"/>
    </clipPath>
    <linearGradient id="linear-gradient-3" x1="-3.269" y1="3.306" x2="-3.249" y2="3.306" xlink:href="#linear-gradient"/>
    <clipPath id="clip-path-4">
      <path id="Path_46" data-name="Path 46" d="M215.205,144.525v18.287L256.442,139V120.717Z" fill="none"/>
    </clipPath>
    <linearGradient id="linear-gradient-4" x1="-3.577" y1="3.529" x2="-3.56" y2="3.529" xlink:href="#linear-gradient"/>
    <clipPath id="clip-path-5">
      <path id="Path_47" data-name="Path 47" d="M173.97,120.717l41.235,23.808,41.237-23.809L215.206,96.909Z" fill="none"/>
    </clipPath>
    <linearGradient id="linear-gradient-5" x1="-1.776" y1="3.081" x2="-1.765" y2="3.081" xlink:href="#linear-gradient-2"/>
    <clipPath id="clip-path-6">
      <path id="Path_50" data-name="Path 50" d="M186.308,122.7l28.9,16.683L244.1,122.7l-28.9-16.685Z" fill="none"/>
    </clipPath>
    <radialGradient id="radial-gradient" cx="0.5" cy="0.5" r="0.837" gradientTransform="matrix(0.577, 0, 0, -0.466, -1.362, 9.301)" gradientUnits="objectBoundingBox">
      <stop offset="0" stop-color="#1b130f"/>
      <stop offset="0.209" stop-color="#1e1612"/>
      <stop offset="0.399" stop-color="#27211d"/>
      <stop offset="0.58" stop-color="#38322f"/>
      <stop offset="0.757" stop-color="#4f4b49"/>
      <stop offset="0.928" stop-color="#6c6b6a"/>
      <stop offset="1" stop-color="#7b7b7b"/>
    </radialGradient>
    <clipPath id="clip-path-7">
      <path id="Path_51" data-name="Path 51" d="M182.871,120.717l3.437,1.985,28.9-16.685L244.1,122.7l3.436-1.984-32.334-18.669Z" fill="none"/>
    </clipPath>
    <linearGradient id="linear-gradient-6" x1="-2.828" y1="10.438" x2="-2.812" y2="10.438" xlink:href="#linear-gradient-2"/>
    <clipPath id="clip-path-8">
      <path id="Path_52" data-name="Path 52" d="M173.969,139l41.237,23.808V144.525l-41.237-23.808Z" fill="none"/>
    </clipPath>
    <linearGradient id="linear-gradient-7" x1="-3.269" y1="3.869" x2="-3.249" y2="3.869" xlink:href="#linear-gradient"/>
    <clipPath id="clip-path-9">
      <rect id="Rectangle_19" data-name="Rectangle 19" width="41.237" height="34.925" transform="translate(215.205 139.004)" fill="none"/>
    </clipPath>
    <clipPath id="clip-path-10">
      <rect id="Rectangle_20" data-name="Rectangle 20" width="41.237" height="34.925" transform="translate(173.969 139.004)" fill="none"/>
    </clipPath>
  </defs>
  <g id="Group_33" data-name="Group 33" transform="translate(-258.969 -535.909)">
    <g id="Group_7" data-name="Group 7" transform="translate(85 439)">
      <g id="Group_6" data-name="Group 6" clip-path="url(#clip-path)">
        <rect id="Rectangle_9" data-name="Rectangle 9" width="57.844" height="58.064" transform="translate(195.533 163.682) rotate(-34.582)" fill="url(#linear-gradient)"/>
      </g>
    </g>
    <g id="Group_9" data-name="Group 9" transform="translate(85 439)">
      <g id="Group_8" data-name="Group 8" clip-path="url(#clip-path-2)">
        <rect id="Rectangle_10" data-name="Rectangle 10" width="94.571" height="76.304" transform="matrix(0.919, -0.395, 0.395, 0.919, 156.701, 133.732)" fill="url(#linear-gradient-2)"/>
      </g>
    </g>
    <path id="Path_44" data-name="Path 44" d="M215.205,168.247,246.6,150.121,215.206,132l-31.4,18.126Z" transform="translate(85 439)" fill="#fff"/>
    <g id="Group_13" data-name="Group 13" transform="translate(85 439)">
      <g id="Group_12" data-name="Group 12" clip-path="url(#clip-path-3)">
        <rect id="Rectangle_12" data-name="Rectangle 12" width="51.632" height="52.207" transform="translate(162.336 153.628) rotate(-16.776)" fill="url(#linear-gradient-3)"/>
      </g>
    </g>
    <g id="Group_15" data-name="Group 15" transform="translate(85 439)">
      <g id="Group_14" data-name="Group 14" clip-path="url(#clip-path-4)">
        <rect id="Rectangle_13" data-name="Rectangle 13" width="57.844" height="58.063" transform="translate(195.534 134.278) rotate(-34.582)" fill="url(#linear-gradient-4)"/>
      </g>
    </g>
    <g id="Group_17" data-name="Group 17" transform="translate(85 439)">
      <g id="Group_16" data-name="Group 16" clip-path="url(#clip-path-5)">
        <rect id="Rectangle_14" data-name="Rectangle 14" width="94.571" height="76.304" transform="matrix(0.919, -0.395, 0.395, 0.919, 156.701, 104.328)" fill="url(#linear-gradient-5)"/>
      </g>
    </g>
    <path id="Path_48" data-name="Path 48" d="M215.205,143.609l40.444-23.35.793.458-41.237,23.808-41.236-23.808.793-.458Z" transform="translate(85 439)" fill="#d0d0d1"/>
    <path id="Path_49" data-name="Path 49" d="M215.205,173.013l40.444-23.35.793.458-41.237,23.808-41.236-23.808.793-.458Z" transform="translate(85 439)" fill="#d0d0d1"/>
    <g id="Group_21" data-name="Group 21" transform="translate(85 439)">
      <g id="Group_20" data-name="Group 20" clip-path="url(#clip-path-6)">
        <rect id="Rectangle_16" data-name="Rectangle 16" width="57.795" height="33.368" transform="translate(186.308 106.017)" fill="url(#radial-gradient)"/>
      </g>
    </g>
    <g id="Group_23" data-name="Group 23" transform="translate(85 439)">
      <g id="Group_22" data-name="Group 22" clip-path="url(#clip-path-7)">
        <rect id="Rectangle_17" data-name="Rectangle 17" width="64.669" height="20.654" transform="translate(182.871 102.048)" fill="url(#linear-gradient-6)"/>
      </g>
    </g>
    <g id="Group_25" data-name="Group 25" transform="translate(85 439)">
      <g id="Group_24" data-name="Group 24" clip-path="url(#clip-path-8)">
        <rect id="Rectangle_18" data-name="Rectangle 18" width="51.632" height="52.206" transform="translate(162.336 124.224) rotate(-16.776)" fill="url(#linear-gradient-7)"/>
      </g>
    </g>
    <g id="Group_28" data-name="Group 28" transform="translate(85 439)" opacity="0.5">
      <g id="Group_27" data-name="Group 27">
        <g id="Group_26" data-name="Group 26" clip-path="url(#clip-path-9)">
          <path id="Path_53" data-name="Path 53" d="M256.442,139v11.117l-41.237,23.808V162.812Z" fill="#fff"/>
        </g>
      </g>
    </g>
    <g id="Group_31" data-name="Group 31" transform="translate(85 439)" opacity="0.5">
      <g id="Group_30" data-name="Group 30">
        <g id="Group_29" data-name="Group 29" clip-path="url(#clip-path-10)">
          <path id="Path_54" data-name="Path 54" d="M173.969,139v11.117L215.2,173.929V162.812Z" fill="#fff"/>
        </g>
      </g>
    </g>
    <path id="Path_55" data-name="Path 55" d="M200.281,145.052a4.765,4.765,0,0,0,2.155,3.733c1.19.687,2.155.13,2.155-1.245a4.763,4.763,0,0,0-2.155-3.732c-1.19-.687-2.155-.13-2.155,1.244" transform="translate(85 439)" fill="#fff"/>
    <path id="Path_56" data-name="Path 56" d="M192.432,140.52a4.765,4.765,0,0,0,2.155,3.733c1.19.687,2.155.13,2.155-1.244a4.763,4.763,0,0,0-2.155-3.733c-1.19-.687-2.155-.13-2.155,1.244" transform="translate(85 439)" fill="#fff"/>
    <path id="Path_57" data-name="Path 57" d="M184.583,135.989a4.765,4.765,0,0,0,2.155,3.733c1.19.687,2.155.13,2.155-1.244a4.763,4.763,0,0,0-2.155-3.733c-1.19-.687-2.155-.13-2.155,1.244" transform="translate(85 439)" fill="#fff"/>
    <path id="Path_58" data-name="Path 58" d="M201.374,143.53a2.074,2.074,0,0,0-.162.848,4.763,4.763,0,0,0,2.155,3.732,1.823,1.823,0,0,0,1.063.278c-.322.722-1.092.917-1.993.4a4.765,4.765,0,0,1-2.155-3.733c0-.926.443-1.468,1.092-1.522" transform="translate(85 439)" fill="#6f6e6a"/>
    <path id="Path_59" data-name="Path 59" d="M193.525,139a2.058,2.058,0,0,0-.162.848,4.76,4.76,0,0,0,2.155,3.732,1.821,1.821,0,0,0,1.063.278c-.323.721-1.093.917-1.994.4a4.766,4.766,0,0,1-2.155-3.733c0-.926.444-1.468,1.093-1.522" transform="translate(85 439)" fill="#6f6e6a"/>
    <path id="Path_60" data-name="Path 60" d="M185.675,134.467a2.074,2.074,0,0,0-.162.848,4.763,4.763,0,0,0,2.155,3.732,1.823,1.823,0,0,0,1.063.278c-.321.721-1.092.917-1.993.4a4.766,4.766,0,0,1-2.155-3.733c0-.926.443-1.468,1.092-1.522" transform="translate(85 439)" fill="#6f6e6a"/>
    <path id="Path_61" data-name="Path 61" d="M200.281,174.456a4.765,4.765,0,0,0,2.155,3.733c1.19.687,2.155.13,2.155-1.245a4.763,4.763,0,0,0-2.155-3.732c-1.19-.687-2.155-.13-2.155,1.244" transform="translate(85 439)" fill="#fff"/>
    <path id="Path_62" data-name="Path 62" d="M192.432,169.924a4.765,4.765,0,0,0,2.155,3.733c1.19.687,2.155.13,2.155-1.245a4.763,4.763,0,0,0-2.155-3.732c-1.19-.687-2.155-.13-2.155,1.244" transform="translate(85 439)" fill="#fff"/>
    <path id="Path_63" data-name="Path 63" d="M184.583,165.393a4.765,4.765,0,0,0,2.155,3.733c1.19.687,2.155.13,2.155-1.245a4.763,4.763,0,0,0-2.155-3.732c-1.19-.687-2.155-.13-2.155,1.244" transform="translate(85 439)" fill="#fff"/>
    <path id="Path_64" data-name="Path 64" d="M201.374,172.934a2.074,2.074,0,0,0-.162.848,4.763,4.763,0,0,0,2.155,3.732,1.823,1.823,0,0,0,1.063.278c-.322.721-1.092.917-1.993.4a4.766,4.766,0,0,1-2.155-3.733c0-.926.443-1.468,1.092-1.522" transform="translate(85 439)" fill="#6f6e6a"/>
    <path id="Path_65" data-name="Path 65" d="M193.525,168.4a2.063,2.063,0,0,0-.162.849,4.758,4.758,0,0,0,2.155,3.731,1.814,1.814,0,0,0,1.063.278c-.323.722-1.093.918-1.994.4a4.768,4.768,0,0,1-2.155-3.734c0-.925.444-1.468,1.093-1.522" transform="translate(85 439)" fill="#6f6e6a"/>
    <path id="Path_66" data-name="Path 66" d="M185.675,163.871a2.073,2.073,0,0,0-.162.847,4.763,4.763,0,0,0,2.155,3.733,1.823,1.823,0,0,0,1.063.278c-.321.722-1.092.917-1.993.4a4.766,4.766,0,0,1-2.155-3.733c0-.926.443-1.468,1.092-1.522" transform="translate(85 439)" fill="#6f6e6a"/>
    <path id="Path_67" data-name="Path 67" d="M230.126,145.052a4.765,4.765,0,0,1-2.155,3.733c-1.19.687-2.155.13-2.155-1.245a4.763,4.763,0,0,1,2.155-3.732c1.19-.687,2.155-.13,2.155,1.244" transform="translate(85 439)" fill="#fff"/>
    <path id="Path_68" data-name="Path 68" d="M237.975,140.52a4.765,4.765,0,0,1-2.155,3.733c-1.19.687-2.155.13-2.155-1.244a4.763,4.763,0,0,1,2.155-3.733c1.19-.687,2.155-.13,2.155,1.244" transform="translate(85 439)" fill="#fff"/>
    <path id="Path_69" data-name="Path 69" d="M245.824,135.989a4.765,4.765,0,0,1-2.155,3.733c-1.19.687-2.155.13-2.155-1.244a4.763,4.763,0,0,1,2.155-3.733c1.19-.687,2.155-.13,2.155,1.244" transform="translate(85 439)" fill="#fff"/>
    <path id="Path_70" data-name="Path 70" d="M229.034,143.53a2.074,2.074,0,0,1,.162.848,4.763,4.763,0,0,1-2.155,3.732,1.823,1.823,0,0,1-1.063.278c.321.722,1.092.917,1.993.4a4.765,4.765,0,0,0,2.155-3.733c0-.926-.443-1.468-1.092-1.522" transform="translate(85 439)" fill="#6f6e6a"/>
    <path id="Path_71" data-name="Path 71" d="M236.883,139a2.074,2.074,0,0,1,.162.848,4.763,4.763,0,0,1-2.155,3.732,1.823,1.823,0,0,1-1.063.278c.321.721,1.091.917,1.993.4a4.766,4.766,0,0,0,2.155-3.733c0-.926-.443-1.468-1.092-1.522" transform="translate(85 439)" fill="#98d5ec"/>
    <path id="Path_72" data-name="Path 72" d="M244.732,134.467a2.074,2.074,0,0,1,.162.848,4.763,4.763,0,0,1-2.155,3.732,1.823,1.823,0,0,1-1.063.278c.322.721,1.092.917,1.993.4a4.766,4.766,0,0,0,2.155-3.733c0-.926-.443-1.468-1.092-1.522" transform="translate(85 439)" fill="#6f6e6a"/>
    <path id="Path_73" data-name="Path 73" d="M230.126,174.456a4.765,4.765,0,0,1-2.155,3.733c-1.19.687-2.155.13-2.155-1.245a4.763,4.763,0,0,1,2.155-3.732c1.19-.687,2.155-.13,2.155,1.244" transform="translate(85 439)" fill="#fff"/>
    <path id="Path_74" data-name="Path 74" d="M237.975,169.924a4.765,4.765,0,0,1-2.155,3.733c-1.19.687-2.155.13-2.155-1.245a4.763,4.763,0,0,1,2.155-3.732c1.19-.687,2.155-.13,2.155,1.244" transform="translate(85 439)" fill="#fff"/>
    <path id="Path_75" data-name="Path 75" d="M245.824,165.393a4.765,4.765,0,0,1-2.155,3.733c-1.19.687-2.155.13-2.155-1.245a4.763,4.763,0,0,1,2.155-3.732c1.19-.687,2.155-.13,2.155,1.244" transform="translate(85 439)" fill="#fff"/>
    <path id="Path_76" data-name="Path 76" d="M229.034,172.934a2.074,2.074,0,0,1,.162.848,4.763,4.763,0,0,1-2.155,3.732,1.823,1.823,0,0,1-1.063.278c.321.721,1.092.917,1.993.4a4.766,4.766,0,0,0,2.155-3.733c0-.926-.443-1.468-1.092-1.522" transform="translate(85 439)" fill="#6f6e6a"/>
    <path id="Path_77" data-name="Path 77" d="M236.883,168.4a2.079,2.079,0,0,1,.162.849,4.761,4.761,0,0,1-2.155,3.731,1.816,1.816,0,0,1-1.063.278c.321.722,1.091.918,1.993.4a4.768,4.768,0,0,0,2.155-3.734c0-.925-.443-1.468-1.092-1.522" transform="translate(85 439)" fill="#6f6e6a"/>
    <path id="Path_78" data-name="Path 78" d="M244.732,163.871a2.072,2.072,0,0,1,.162.847,4.763,4.763,0,0,1-2.155,3.733,1.823,1.823,0,0,1-1.063.278c.322.722,1.092.917,1.993.4a4.766,4.766,0,0,0,2.155-3.733c0-.926-.443-1.468-1.092-1.522" transform="translate(85 439)" fill="#6f6e6a"/>
  </g>
</svg>
