<?xml version="1.0" encoding="utf-8"?>
<!-- Generator: Adobe Illustrator 26.0.2, SVG Export Plug-In . SVG Version: 6.00 Build 0)  -->
<svg version="1.1" id="圖層_1" xmlns="http://www.w3.org/2000/svg" xmlns:xlink="http://www.w3.org/1999/xlink" x="0px" y="0px"
	 viewBox="0 0 93.7 64.1" style="enable-background:new 0 0 93.7 64.1;" xml:space="preserve">
<style type="text/css">
	.st0{fill:#0D509B;}
	.st1{fill:url(#SVGID_1_);}
	.st2{fill:none;}
	.st3{fill:#107EBA;}
	.st4{fill:#084A92;}
	.st5{opacity:0.19;}
	.st6{fill:#231815;}
</style>
<path class="st0" d="M34.8,3.6c3.4-1.3,7-1.9,10.5-1.9c10.4,0,20.4,5.4,26,14.7c0.5,0.9,1,1.8,1.4,2.7c0.1,0.2,0.2,0.5,0.3,0.7l0,0
	c0.2,0.6,0.5,1.1,0.7,1.7c0.4,1,0.7,2.1,1,3.1c-0.1,0.1-0.2,0.2-0.3,0.2c-0.2,0.1-0.4,0.2-0.5,0.4c-0.2,0.1-0.4,0.3-0.6,0.4
	c-0.2,0.1-0.4,0.2-0.6,0.4c-0.2,0.1-0.4,0.3-0.7,0.4c-0.2,0.1-0.4,0.3-0.6,0.4c-0.2,0.1-0.5,0.3-0.7,0.4c-0.2,0.1-0.5,0.3-0.7,0.4
	c-0.2,0.1-0.5,0.3-0.8,0.4c-0.2,0.1-0.5,0.3-0.7,0.4c-0.3,0.1-0.5,0.3-0.8,0.4c-0.3,0.1-0.5,0.3-0.8,0.4c-0.3,0.1-0.6,0.3-0.9,0.4
	c-0.3,0.1-0.5,0.3-0.8,0.4c-0.3,0.1-0.6,0.3-0.9,0.4c-0.3,0.1-0.6,0.3-0.8,0.4c-0.3,0.1-0.6,0.3-1,0.4c-0.3,0.1-0.6,0.3-0.9,0.4
	c-0.3,0.2-0.7,0.3-1,0.5c-0.3,0.1-0.6,0.3-0.9,0.4c-0.3,0.2-0.7,0.3-1.1,0.5c-0.3,0.1-0.6,0.3-0.9,0.4c-0.4,0.2-0.7,0.3-1.1,0.5
	c-0.3,0.1-0.6,0.3-0.9,0.4c-0.4,0.2-0.8,0.3-1.2,0.5c-0.3,0.1-0.6,0.2-0.9,0.4c-0.4,0.2-0.9,0.3-1.3,0.5c-0.3,0.1-0.5,0.2-0.8,0.3
	c-0.5,0.2-0.9,0.4-1.4,0.5c-0.2,0.1-0.5,0.2-0.7,0.3c-0.7,0.3-1.4,0.5-2.2,0.8c-0.7,0.3-1.4,0.5-2.2,0.8c-0.3,0.1-0.5,0.2-0.8,0.3
	c-0.5,0.2-0.9,0.3-1.4,0.5c-0.3,0.1-0.6,0.2-0.9,0.3c-0.4,0.1-0.8,0.3-1.3,0.4c-0.3,0.1-0.6,0.2-1,0.3c-0.4,0.1-0.8,0.3-1.1,0.4
	c-0.3,0.1-0.7,0.2-1,0.3c-0.4,0.1-0.7,0.2-1.1,0.3c-0.3,0.1-0.7,0.2-1,0.3c-0.4,0.1-0.7,0.2-1.1,0.3c-0.3,0.1-0.6,0.2-1,0.3
	c-0.3,0.1-0.7,0.2-1,0.3c-0.3,0.1-0.6,0.2-0.9,0.3c-0.3,0.1-0.7,0.2-1,0.3c-0.3,0.1-0.6,0.2-0.9,0.2c-0.3,0.1-0.6,0.2-1,0.3
	c-0.3,0.1-0.6,0.1-0.9,0.2c-0.3,0.1-0.6,0.2-0.9,0.2c-0.3,0.1-0.6,0.1-0.9,0.2c-0.3,0.1-0.6,0.1-0.9,0.2c-0.3,0.1-0.5,0.1-0.8,0.2
	c-0.3,0.1-0.6,0.1-0.8,0.2c-0.3,0.1-0.5,0.1-0.8,0.2c-0.3,0.1-0.5,0.1-0.8,0.2c-0.2,0-0.5,0.1-0.7,0.1c-0.3,0-0.5,0.1-0.8,0.1
	c-0.2,0-0.5,0.1-0.7,0.1c-0.2,0-0.5,0.1-0.7,0.1c-0.2,0-0.4,0.1-0.6,0.1c-0.1,0-0.3,0-0.4,0c-0.5-1-0.9-2-1.3-3
	c-0.2-0.6-0.4-1.2-0.6-1.8c-0.2-0.7-0.4-1.4-0.6-2.2c-0.1-0.5-0.2-1.1-0.3-1.6C13,22.6,21.2,8.6,34.8,3.6z"/>
<radialGradient id="SVGID_1_" cx="30.073" cy="50.9342" r="60.5178" gradientUnits="userSpaceOnUse">
	<stop  offset="0" style="stop-color:#1C2A53"/>
	<stop  offset="0.1894" style="stop-color:#1E4065"/>
	<stop  offset="0.5873" style="stop-color:#1E7495"/>
	<stop  offset="0.8664" style="stop-color:#1D97BB"/>
	<stop  offset="1" style="stop-color:#1EA5C9"/>
</radialGradient>
<circle class="st1" cx="45.4" cy="32" r="30.6"/>
<g>
	<path class="st2" d="M74.5,21.3c0.5,1.2,0.8,2.5,1.1,3.7c-5.3,3.7-15.7,8.7-28,13.2c-12.3,4.5-23.4,7.4-29.9,8.1
		c-0.6-1.1-1.1-2.3-1.6-3.6c0-0.1,0-0.1-0.1-0.2c-0.2-0.5-0.4-1.1-0.5-1.6c-0.4-1.3-0.7-2.6-0.9-3.9c0-0.1,0-0.1,0-0.2
		c-0.3-1.9-0.4-3.8-0.4-5.7c0.1-3.6,0.8-7.1,2.1-10.4c3.1-8,9.5-14.7,18.3-17.9c8.6-3.2,17.8-2.3,25.3,1.7c3.1,1.6,5.9,3.8,8.3,6.4
		c1.3,1.4,2.5,2.9,3.5,4.6c0.1,0.1,0.2,0.3,0.2,0.4c0.7,1.1,1.3,2.3,1.8,3.5c0.2,0.5,0.4,0.9,0.6,1.4C74.4,21,74.4,21.1,74.5,21.3z"
		/>
</g>
<path class="st3" d="M84.4,16.1c-3-0.3-6.8-0.2-11.3,0.4c0.1,0.2,0.2,0.4,0.3,0.6c0,0.1,0.1,0.2,0.1,0.3c0.2,0.4,0.4,0.8,0.6,1.3
	c1.6-0.1,2.9-0.1,3.9,0.1h0c1.1,0.2,1.7,0.7,1.9,1.4c0.1,0.2,0.1,0.4,0.1,0.6c0,1.2-1.2,2.6-3.8,4.5l-0.4,0.3
	c-2.1,1.5-4.9,3.1-8.2,4.8c-1.1,0.6-2.3,1.1-3.5,1.7c-1.8,0.9-3.7,1.7-5.8,2.6c-3.4,1.4-7,2.9-10.7,4.3c-12,4.4-23.3,7.4-30.1,8.1
	l-0.5,0c-3.6,0.3-5.6-0.2-6.1-1.5c-0.3-0.7,0-1.5,0.7-2.4c0.6-0.8,1.5-1.6,2.8-2.5c-0.1-0.4-0.2-0.9-0.3-1.3c0-0.1,0-0.2-0.1-0.3
	c0-0.2-0.1-0.5-0.1-0.7c-3.8,2.5-6.8,4.8-8.9,7c0,0,0,0,0,0c-2.9,2.9-4.1,5.5-3.4,7.4C3,56.3,12,57.2,25,54.9c6-1,12.5-2.7,19.3-4.9
	c2.2-0.7,4.5-1.5,6.8-2.3c9.1-3.3,17.5-7.3,24.5-11.3c11.4-6.7,17.6-13.1,16.3-16.8C91.1,17.7,88.5,16.5,84.4,16.1z"/>
<path class="st4" d="M88.6,19.1c-0.6-1.5-2.1-2.4-4.2-2.9c-3-0.3-6.8-0.2-11.3,0.4c0.1,0.2,0.2,0.4,0.3,0.6c0,0.1,0.1,0.2,0.1,0.3
	c0.2,0.4,0.4,0.8,0.6,1.3c1.6-0.1,2.9-0.1,3.9,0.1h0c2.4,0.1,3.5,0.7,3.7,1.2c0.6,1.5-3.5,5.6-13.8,11c-5.7,3-12.6,6-19.9,8.7
	c-4.3,1.6-8.5,3-12.6,4.1c-2.8,0.8-5.6,1.5-8.2,2.1c-11.3,2.6-17.1,2.1-17.6,0.5c-0.2-0.6,0.3-1.8,2.1-3.5c0.6-0.8,1.5-1.6,2.8-2.5
	c-0.1-0.4-0.2-0.9-0.3-1.3c0-0.1,0-0.2-0.1-0.3c0-0.2-0.1-0.5-0.1-0.7c-3.8,2.5-6.8,4.8-8.9,7c0,0,0,0,0,0C4,47,3.4,48.7,3.9,50.2
	c0.5,1.5,2.1,2.5,4.2,3c4.9,1.2,12.9,0,18.2-1.1c4.7-0.9,9.7-2.2,14.9-3.8c2.9-0.9,5.9-1.9,8.9-3c8.3-3.1,16.1-6.6,22.6-10.2
	C79.5,31.3,90.5,24.3,88.6,19.1z M71.9,33.6c-6.4,3.6-14.1,7-22.3,10.1c-3.8,1.4-7.5,2.6-11.1,3.7c-4.3,1.3-8.5,2.3-12.4,3.1
	c-13.9,2.8-19.7,1.3-20.5-0.8c-0.4-1.2,0.5-3.3,3.7-6.2c-1.1,1.4-1.5,2.7-1.1,3.7c0.4,1,1.4,1.7,2.9,2c3.9,0.9,10.8-0.2,16.7-1.5
	c2.7-0.6,5.5-1.3,8.4-2.2c4.1-1.2,8.3-2.6,12.6-4.1c7.4-2.7,14.3-5.7,20.1-8.8c7.4-3.9,16-9.3,14.6-13.1c-0.4-1.1-1.5-1.8-3.2-2.1
	c4.3,0.1,6.4,1.1,6.8,2.3C87.8,21.8,84.3,26.7,71.9,33.6z"/>
<path class="st0" d="M93.2,19.1c-1.5-4.1-8.9-5.5-20.9-3.9C64.4,2.4,48.5-3.1,34.3,2.1C20.2,7.3,11.6,21.8,13.8,36.7
	C3.7,43.2-1.1,49.1,0.4,53.2c1.1,3,5.4,4.5,12.2,4.5c3.5,0,7.6-0.4,12.4-1.2c5.8,4.8,13,7.3,20.3,7.3c3.7,0,7.4-0.6,10.9-1.9
	C66.9,58,74.7,48.6,76.6,37.5C88.9,30.3,94.9,23.6,93.2,19.1z M78.7,20.7c0,0,0.2,0.8-2.7,3c-0.3-0.9-0.5-1.9-0.9-2.7
	c-0.1-0.3-0.2-0.6-0.3-0.9C78.4,20,78.7,20.7,78.7,20.7z M34.9,3.5c3.4-1.3,7-1.9,10.4-1.9c10.4,0,20.4,5.4,26,14.7
	c0.5,0.9,1,1.8,1.4,2.7c0.1,0.3,0.2,0.5,0.3,0.7c0.3,0.6,0.5,1.1,0.7,1.7c0.4,1,0.7,2.1,1,3.1c-0.1,0.1-0.2,0.2-0.3,0.2
	c-0.2,0.1-0.4,0.2-0.5,0.4c-0.2,0.1-0.4,0.3-0.6,0.4c-0.2,0.1-0.4,0.3-0.6,0.4c-0.2,0.1-0.4,0.3-0.7,0.4c-0.2,0.1-0.4,0.3-0.6,0.4
	c-0.2,0.1-0.5,0.3-0.7,0.4c-0.2,0.1-0.5,0.3-0.7,0.4c-0.3,0.1-0.5,0.3-0.8,0.4c-0.3,0.1-0.5,0.3-0.7,0.4c-0.3,0.1-0.5,0.3-0.8,0.4
	c-0.3,0.1-0.5,0.3-0.8,0.4c-0.3,0.1-0.6,0.3-0.9,0.4c-0.3,0.1-0.5,0.3-0.8,0.4c-0.3,0.1-0.6,0.3-0.9,0.4c-0.3,0.1-0.6,0.3-0.9,0.4
	c-0.3,0.1-0.6,0.3-0.9,0.4c-0.3,0.1-0.6,0.3-0.9,0.4c-0.3,0.1-0.7,0.3-1,0.5c-0.3,0.1-0.6,0.3-0.9,0.4c-0.3,0.2-0.7,0.3-1.1,0.5
	c-0.3,0.1-0.6,0.3-0.9,0.4c-0.4,0.2-0.7,0.3-1.1,0.5c-0.3,0.1-0.6,0.3-0.9,0.4c-0.4,0.2-0.8,0.3-1.2,0.5c-0.3,0.1-0.6,0.2-0.9,0.4
	c-0.4,0.2-0.9,0.3-1.3,0.5c-0.3,0.1-0.5,0.2-0.8,0.3c-0.5,0.2-0.9,0.4-1.4,0.5c-0.2,0.1-0.5,0.2-0.7,0.3c-0.7,0.3-1.4,0.5-2.2,0.8
	c-0.7,0.3-1.4,0.5-2.2,0.8c-0.3,0.1-0.5,0.2-0.8,0.3c-0.5,0.2-0.9,0.3-1.4,0.5c-0.3,0.1-0.6,0.2-0.9,0.3c-0.4,0.1-0.8,0.3-1.2,0.4
	c-0.3,0.1-0.6,0.2-1,0.3c-0.4,0.1-0.8,0.3-1.1,0.4c-0.3,0.1-0.7,0.2-1,0.3c-0.4,0.1-0.7,0.2-1.1,0.3c-0.3,0.1-0.7,0.2-1,0.3
	c-0.4,0.1-0.7,0.2-1.1,0.3c-0.3,0.1-0.6,0.2-1,0.3c-0.3,0.1-0.7,0.2-1,0.3c-0.3,0.1-0.6,0.2-0.9,0.3c-0.3,0.1-0.7,0.2-1,0.3
	c-0.3,0.1-0.6,0.2-0.9,0.3c-0.3,0.1-0.7,0.2-1,0.3c-0.3,0.1-0.6,0.1-0.9,0.2c-0.3,0.1-0.6,0.1-0.9,0.2c-0.3,0.1-0.6,0.1-0.9,0.2
	c-0.3,0.1-0.6,0.1-0.9,0.2c-0.3,0.1-0.5,0.1-0.8,0.2c-0.3,0.1-0.6,0.1-0.8,0.2c-0.3,0.1-0.5,0.1-0.8,0.2c-0.3,0-0.5,0.1-0.8,0.1
	c-0.2,0-0.5,0.1-0.7,0.1c-0.3,0-0.5,0.1-0.8,0.1c-0.2,0-0.5,0.1-0.7,0.1c-0.3,0-0.5,0.1-0.7,0.1c-0.2,0-0.4,0.1-0.6,0.1
	c-0.1,0-0.3,0-0.4,0c-0.5-1-0.9-2-1.3-3c-0.2-0.6-0.4-1.2-0.6-1.8c-0.2-0.7-0.4-1.5-0.5-2.2c-0.1-0.5-0.2-1.1-0.3-1.6
	C13,22.6,21.2,8.5,34.9,3.5z M16.6,45.6c-3.6,0.2-4-0.5-4-0.6c0,0-0.2-0.8,2.6-3c0.1,0.3,0.2,0.6,0.3,0.9
	C15.8,43.9,16.2,44.7,16.6,45.6z M55.8,60.5C46,64,35.1,62.4,26.9,56.1c0.3-0.1,0.5-0.1,0.8-0.2c0.4-0.1,0.9-0.2,1.3-0.3
	c0.6-0.1,1.1-0.2,1.7-0.4c0.5-0.1,0.9-0.2,1.4-0.3c0.6-0.1,1.2-0.3,1.7-0.4c0.5-0.1,0.9-0.2,1.4-0.3c0.6-0.2,1.2-0.3,1.8-0.5
	c0.5-0.1,0.9-0.3,1.4-0.4c0.6-0.2,1.3-0.4,1.9-0.5c0.5-0.1,0.9-0.3,1.4-0.4c0.7-0.2,1.3-0.4,2-0.6c0.4-0.1,0.9-0.3,1.3-0.4
	c0.7-0.2,1.5-0.5,2.2-0.7c0.4-0.1,0.7-0.2,1.1-0.4c1.1-0.4,2.2-0.8,3.3-1.2c1.1-0.4,2.2-0.8,3.3-1.2c0.4-0.1,0.7-0.3,1.1-0.4
	c0.7-0.3,1.4-0.6,2.2-0.9c0.4-0.2,0.8-0.4,1.3-0.5c0.6-0.3,1.3-0.5,1.9-0.8c0.4-0.2,0.9-0.4,1.3-0.6c0.6-0.3,1.2-0.5,1.8-0.8
	c0.4-0.2,0.9-0.4,1.3-0.6c0.6-0.3,1.1-0.5,1.7-0.8c0.4-0.2,0.9-0.4,1.3-0.7c0.5-0.3,1.1-0.5,1.6-0.8c0.4-0.2,0.8-0.4,1.3-0.7
	c0.5-0.3,1-0.5,1.5-0.8c0.4-0.2,0.8-0.4,1.2-0.7c0.2-0.1,0.5-0.3,0.7-0.4C72.7,48.6,65.5,56.9,55.8,60.5z M75.6,36.4
	c-7,4.1-15.5,8-24.5,11.3c-2.3,0.8-4.5,1.6-6.8,2.3c-6.7,2.2-13.3,3.8-19.3,4.9c-13,2.3-21.9,1.4-23.3-2.3c-0.7-1.9,0.5-4.4,3.4-7.4
	c0,0,0,0,0,0c2.1-2.2,5.1-4.6,8.9-7c0,0.2,0.1,0.5,0.1,0.7c0,0.1,0,0.2,0.1,0.3c0.1,0.4,0.2,0.9,0.3,1.3c-1.3,0.9-2.2,1.8-2.8,2.5
	c-0.7,0.9-1,1.7-0.7,2.4c0.5,1.3,2.4,1.8,6.1,1.5l0.5,0c6.8-0.7,18.1-3.7,30.1-8.1c3.8-1.4,7.4-2.8,10.7-4.3c2-0.9,3.9-1.7,5.8-2.6
	c1.2-0.6,2.4-1.1,3.5-1.7c3.3-1.7,6.1-3.3,8.2-4.8l0.4-0.3c2.6-1.8,3.8-3.3,3.8-4.5c0-0.2,0-0.4-0.1-0.6c-0.3-0.7-0.9-1.1-1.9-1.4h0
	c-0.9-0.2-2.2-0.3-3.9-0.1c-0.2-0.4-0.4-0.8-0.6-1.3c0-0.1-0.1-0.2-0.1-0.3c-0.1-0.2-0.2-0.4-0.3-0.6c4.5-0.6,8.3-0.7,11.3-0.4
	c4.1,0.4,6.7,1.6,7.4,3.4C93.2,23.3,87,29.7,75.6,36.4z"/>
<g class="st5">
	<path class="st6" d="M74.6,24.7c0-0.1,0-0.2-0.1-0.3c-5.1,2.5-28.9,13-39.5,13.2c-5.6,0.1-11.1-2.6-12.3-8
		c-1.3-7.4,0.2-15.1,4.1-21.5C21,12.7,17,19.2,15.5,26.4c-1.2,6.3-0.2,13.2,2.7,19c10-1.3,19.7-4.6,29.2-8
		C56.7,33.9,66.2,30.1,74.6,24.7z"/>
	<path class="st6" d="M74.3,38.8c-14.8,8.1-30.8,13.9-47.3,17.2c16.7,13.6,43.6,3.6,48-17.6L74.3,38.8z"/>
</g>
</svg>
