<?xml version="1.0" encoding="utf-8"?>
<!-- Generator: Adobe Illustrator 26.0.2, SVG Export Plug-In . SVG Version: 6.00 Build 0)  -->
<svg version="1.1" id="圖層_1" xmlns="http://www.w3.org/2000/svg" xmlns:xlink="http://www.w3.org/1999/xlink" x="0px" y="0px"
	 viewBox="0 0 315.6 220.2" style="enable-background:new 0 0 315.6 220.2;" xml:space="preserve">
<style type="text/css">
	.st0{opacity:0.26;fill:url(#SVGID_1_);enable-background:new    ;}
	.st1{opacity:0.26;fill:url(#SVGID_00000038414322753962302370000006016420252993354404_);enable-background:new    ;}
	.st2{fill:#FF00FF;}
	.st3{fill:#FFFFFF;}
	.st4{fill:#2096D5;}
	.st5{fill:#141E3E;}
	.st6{opacity:0.4;fill:url(#SVGID_00000150790179955000336580000017224786914422835860_);enable-background:new    ;}
	.st7{opacity:0.4;fill:url(#SVGID_00000044152054230335352970000002064190507384081080_);enable-background:new    ;}
	.st8{opacity:0.4;fill:url(#SVGID_00000011733417672443367020000001860986775730962336_);enable-background:new    ;}
	.st9{fill:#BCC9E7;}
	.st10{opacity:0.6;fill:url(#SVGID_00000150811311136017911000000009043435207361215409_);enable-background:new    ;}
	.st11{opacity:0.45;fill:url(#SVGID_00000109733654262987852930000010786857278643780519_);enable-background:new    ;}
	.st12{opacity:0.45;fill:#A3B5C3;enable-background:new    ;}
	.st13{fill:none;stroke:#1B284F;stroke-width:2;stroke-linecap:round;stroke-linejoin:round;stroke-miterlimit:10;}
	.st14{opacity:0.45;fill:url(#SVGID_00000013886243528607280050000007253721113575957428_);enable-background:new    ;}
	.st15{fill:#DDDDDD;}
	.st16{opacity:0.33;fill:#E6E6E8;enable-background:new    ;}
</style>
<linearGradient id="SVGID_1_" gradientUnits="userSpaceOnUse" x1="28.5335" y1="1116.5002" x2="28.5335" y2="1154.8282" gradientTransform="matrix(-0.7071 0.7071 0.7071 0.7071 -495.8441 -727.9962)">
	<stop  offset="0" style="stop-color:#FFFFFF"/>
	<stop  offset="0.875" style="stop-color:#FFFFFF;stop-opacity:0"/>
</linearGradient>
<circle class="st0" cx="287" cy="95.2" r="19.2"/>
<linearGradient id="SVGID_00000023986174523001241520000002861125162559582860_" gradientUnits="userSpaceOnUse" x1="164.1579" y1="884.3824" x2="164.1579" y2="975.3833" gradientTransform="matrix(-0.7071 0.7071 0.7071 0.7071 -495.8441 -727.9962)">
	<stop  offset="0" style="stop-color:#FFFFFF"/>
	<stop  offset="0.875" style="stop-color:#FFFFFF;stop-opacity:0"/>
</linearGradient>
<circle style="opacity:0.26;fill:url(#SVGID_00000023986174523001241520000002861125162559582860_);enable-background:new    ;" cx="45.6" cy="45.6" r="45.5"/>
<path class="st2" d="M216.7,81.4c-1.4-4.7-4.5-7.7-9.1-9.1c-1.4-0.4-1.4-0.8,0-1.2c4.7-1.4,7.7-4.5,9.1-9.1c0.4-1.4,0.8-1.4,1.2,0
	c1.4,4.7,4.5,7.7,9.1,9.1c1.4,0.4,1.4,0.8,0,1.2c-4.7,1.4-7.7,4.5-9.1,9.1C217.4,82.8,217.1,82.8,216.7,81.4z"/>
<path class="st3" d="M53.2,67.8h22.2V45.6h7.7v52.5h-7.7V75.3H53.2v22.8h-7.6V45.6h7.6V67.8z"/>
<path class="st3" d="M95.3,90.5h24.4v7.6h-32V45.6h32v7.6H95.3V68h23.8v7.7H95.3V90.5z"/>
<path class="st3" d="M131.1,90.5h24.7v7.6h-32.3V45.6h7.6V90.5z"/>
<path class="st3" d="M167,90.5h24.7v7.6h-32.3V45.6h7.6V90.5z"/>
<path class="st3" d="M198.3,52.8c4.8-4.9,11.6-8,18.9-8c7.4,0,14.1,3.1,19,8c4.7,4.9,7.8,11.6,7.8,19s-3.1,14.1-7.8,19
	c-4.9,5-11.6,8-19,8s-14.1-3-18.9-8c-4.7-4.9-7.8-11.6-7.8-19S193.6,57.7,198.3,52.8z M230.8,58.2c-3.5-3.5-8.4-5.7-13.6-5.7
	c-5.2,0-10,2.2-13.5,5.7s-5.6,8.3-5.6,13.6s2.2,10.1,5.6,13.6c3.5,3.5,8.3,5.7,13.5,5.7s10.1-2.2,13.6-5.7c3.4-3.5,5.6-8.2,5.6-13.6
	S234.2,61.7,230.8,58.2z"/>
<path class="st3" d="M74.3,136c-3,8.6-6.2,17.5-8.9,25.5h-5.6l-17.5-53h7.9l12.5,37.9l8.6-24.6h6.1l8.6,24.5
	c4.1-12.5,8.7-25.9,12.6-37.9h8l-17.5,53h-5.6L74.3,136z"/>
<path class="st3" d="M113.8,115.7c4.8-4.9,11.6-8,18.9-8c7.4,0,14.1,3.1,19,8c4.7,4.9,7.8,11.6,7.8,19c0,7.4-3.1,14.1-7.8,19
	c-4.9,5-11.6,8-19,8c-7.4,0-14.1-3-18.9-8c-4.7-4.9-7.8-11.6-7.8-19C105.9,127.3,109,120.6,113.8,115.7z M146.3,121.1
	c-3.5-3.5-8.4-5.7-13.6-5.7s-10,2.2-13.5,5.7s-5.6,8.3-5.6,13.6s2.2,10.1,5.6,13.6c3.5,3.5,8.3,5.7,13.5,5.7s10.1-2.2,13.6-5.7
	c3.4-3.5,5.6-8.2,5.6-13.6C151.9,129.3,149.7,124.6,146.3,121.1z"/>
<path class="st3" d="M174.6,134.3h8.9c6.4,0,9.5-4.6,9.5-9.2c0-4.5-3.2-9.1-9.5-9.1h-11.6v45h-7.5v-52.6h19.2
	c11.4,0,17.1,8.4,17.1,16.8c0,7.4-4.6,14.5-13.6,16.1l16.6,19.8h-9.8L174.6,138V134.3z"/>
<path class="st3" d="M213.7,153.4h24.7v7.6h-32.3v-52.5h7.6V153.4z"/>
<path class="st3" d="M260.6,108.5c17.2,0,25.8,13.2,25.8,26.3s-8.6,26.2-25.8,26.2h-18.9v-52.5H260.6z M260.6,153.4
	c12.2,0,18.3-9.3,18.3-18.6s-6.2-18.7-18.3-18.7h-11.3v37.3H260.6z"/>
<g>
	<path class="st4" d="M46.9,195.2h3.9l4.2,14.1l5.2-13.1h0.1l5.2,13.1l4.2-14h3.9l-7.2,23h-0.3l-5.8-13.7l-5.8,13.7h-0.3L46.9,195.2
		z"/>
	<path class="st4" d="M79.7,198.7v5.8h8.6v3.6h-8.6v6.3h10v3.6H76.2v-22.8h13.6v3.5L79.7,198.7L79.7,198.7z"/>
	<path class="st4" d="M107.2,214.4v3.6H93.4v-22.8H97v19.2H107.2z"/>
	<path class="st4" d="M108,206.6c0-6.4,5.4-11.8,11.8-11.8c3,0,5.7,1.3,7.9,3.5l-2.1,2.8c-1.6-1.6-3.7-2.7-5.9-2.7
		c-4.1,0-8.1,3.6-8.1,8.2c0,4.6,4,8.1,8.1,8.1c2.3,0,4.3-1.2,5.9-2.7l2.1,2.9c-2,1.9-4.5,3.4-7.9,3.4C113.4,218.3,108,213,108,206.6
		z"/>
	<path class="st4" d="M128.5,206.6c0-6.5,5.3-11.8,11.8-11.8s11.8,5.3,11.8,11.8c0,6.4-5.3,11.7-11.8,11.7
		C133.7,218.3,128.5,213,128.5,206.6z M148.4,206.5c0-4.5-3.7-8.2-8.2-8.2s-8.2,3.7-8.2,8.2s3.7,8.1,8.2,8.1
		C144.7,214.7,148.4,211,148.4,206.5z"/>
	<path class="st4" d="M177.6,194.7V218H174v-12.6l-7.6,12.3l0,0l-7.6-12.3V218h-3.6v-23.3h0.3l10.9,16.6l10.9-16.6H177.6z"/>
	<path class="st4" d="M204.8,198.7h-6.1v19.2h-3.6v-19.2H189v-3.5h15.8V198.7z"/>
	<path class="st4" d="M205.4,206.6c0-6.5,5.3-11.8,11.8-11.8s11.8,5.3,11.8,11.8c0,6.4-5.3,11.7-11.8,11.7S205.4,213,205.4,206.6z
		 M225.4,206.5c0-4.5-3.7-8.2-8.2-8.2s-8.2,3.7-8.2,8.2s3.7,8.1,8.2,8.1C221.7,214.7,225.4,211,225.4,206.5z"/>
	<path class="st4" d="M239.7,206.6c0-6.4,5.4-11.8,11.8-11.8c3,0,5.7,1.3,7.9,3.5l-2.1,2.8c-1.6-1.6-3.7-2.7-5.9-2.7
		c-4.1,0-8.1,3.6-8.1,8.2c0,4.6,4,8.1,8.1,8.1c2.3,0,4.3-1.2,5.9-2.7l2.1,2.9c-2,1.9-4.5,3.4-7.9,3.4
		C245,218.3,239.7,213,239.7,206.6z"/>
	<path class="st4" d="M280.2,214.9c0.9,0.4,2,0.6,3.2,0.7l-0.4,3.5c-2.5-0.1-4.3-0.9-5.8-2c-1.6,0.8-3.5,1.3-5.4,1.3
		c-6.5,0-11.8-5.3-11.8-11.7c0-6.5,5.3-11.8,11.8-11.8s11.8,5.3,11.8,11.8C283.7,209.8,282.4,212.7,280.2,214.9z M271.9,214.7
		c0.9,0,1.8-0.1,2.6-0.4c-1.8-2.1-3.4-4.1-5.9-4.2l0.2-3.1c4.4,0.2,5.9,3.3,8.4,5.8c1.8-1.5,2.9-3.7,2.9-6.2c0-4.5-3.7-8.2-8.2-8.2
		s-8.2,3.7-8.2,8.2C263.7,211,267.4,214.7,271.9,214.7z"/>
	<path class="st4" d="M301.9,202.7c0,3.2-1.2,4.1-7.7,15.3h-4.1l4.8-8.4c-0.7,0.3-1.4,0.4-2.1,0.4c-3.6,0-7-3.1-7-7.3s3.5-7.8,8-7.8
		C298.4,194.9,301.9,198.5,301.9,202.7z M298.3,202.7c0-2.3-2-4.3-4.5-4.3c-2.4,0-4.4,2-4.4,4.3c0,2.4,2,4.3,4.4,4.3
		C296.3,207,298.3,205,298.3,202.7z"/>
</g>
<g>
	<g>
		<g>
			<path class="st5" d="M301.6,156.7l0.6,1.5c0.1,0.3,0.5,0.6,0.8,0.6h3.7c0.4,0,0.7-0.2,0.8-0.6l0.6-1.5H301.6z"/>
			
				<linearGradient id="SVGID_00000156588527213209767500000007955140132099402933_" gradientUnits="userSpaceOnUse" x1="-408.4077" y1="182.1503" x2="-407.2109" y2="182.1503" gradientTransform="matrix(0 -1 -1 0 487.0503 -250.4654)">
				<stop  offset="0" style="stop-color:#1B284F"/>
				<stop  offset="1" style="stop-color:#1B284F;stop-opacity:0"/>
			</linearGradient>
			
				<polygon style="opacity:0.4;fill:url(#SVGID_00000156588527213209767500000007955140132099402933_);enable-background:new    ;" points="
				307.7,157.9 308.2,156.7 301.6,156.7 302.1,157.9 			"/>
		</g>
		<g>
			<path class="st5" d="M308.9,156.1h6c0.2,0,0.4-0.3,0.4-0.5l-0.4-1.6c-0.2-0.7-0.6-1.3-1.2-1.7l0,0c-2-1.1-3.6-3.1-4.3-5.5
				l-0.5-2.1V156.1z"/>
			
				<linearGradient id="SVGID_00000083074048955922607970000001103573688842244254_" gradientUnits="userSpaceOnUse" x1="-406.5628" y1="175.6503" x2="-395.2341" y2="175.6503" gradientTransform="matrix(0 -1 -1 0 487.0503 -250.4654)">
				<stop  offset="0" style="stop-color:#1B284F"/>
				<stop  offset="1" style="stop-color:#1B284F;stop-opacity:0"/>
			</linearGradient>
			<path style="opacity:0.4;fill:url(#SVGID_00000083074048955922607970000001103573688842244254_);enable-background:new    ;" d="
				M310.3,154.6c0.2-1.5,0.5-3,0.8-4.5c-0.8-0.9-1.3-2.1-1.7-3.3l-0.5-2.1V156h5C312.6,155.6,311.4,155.1,310.3,154.6z"/>
		</g>
		<g>
			<path class="st5" d="M301,156.1h-6c-0.2,0-0.4-0.3-0.4-0.5l0.4-1.6c0.2-0.7,0.6-1.3,1.2-1.7l0,0c2-1.1,3.6-3.1,4.3-5.5l0.5-2.1
				V156.1z"/>
			
				<linearGradient id="SVGID_00000068669197924765663210000008464653644980219293_" gradientUnits="userSpaceOnUse" x1="-406.5628" y1="188.5503" x2="-395.2341" y2="188.5503" gradientTransform="matrix(0 -1 -1 0 487.0503 -250.4654)">
				<stop  offset="0" style="stop-color:#1B284F"/>
				<stop  offset="1" style="stop-color:#1B284F;stop-opacity:0"/>
			</linearGradient>
			<path style="opacity:0.4;fill:url(#SVGID_00000068669197924765663210000008464653644980219293_);enable-background:new    ;" d="
				M299.6,154.6c-0.2-1.5-0.5-3-0.8-4.5c0.8-0.9,1.3-2.1,1.7-3.3l0.5-2.1V156h-5C297.2,155.6,298.4,155.1,299.6,154.6z"/>
		</g>
		<path class="st9" d="M308.3,156.7h-6.8c-0.3,0-0.6-0.2-0.6-0.4c-0.7-3.7-1-7.3-0.9-11c0-3.2,2.1-6.3,4.4-9.1l0,0
			c0.2-0.3,0.8-0.3,1,0l0,0c2.4,2.7,4.4,5.8,4.4,9.1c0.1,3.7-0.2,7.4-0.9,11C308.9,156.6,308.6,156.7,308.3,156.7z"/>
		
			<linearGradient id="SVGID_00000127730689522480404490000010602414826519149956_" gradientUnits="userSpaceOnUse" x1="-405.3938" y1="190.3313" x2="-406.1003" y2="177.1896" gradientTransform="matrix(0 -1 -1 0 487.0503 -250.4654)">
			<stop  offset="0" style="stop-color:#1B284F"/>
			<stop  offset="1" style="stop-color:#1B284F;stop-opacity:0"/>
		</linearGradient>
		<path style="opacity:0.6;fill:url(#SVGID_00000127730689522480404490000010602414826519149956_);enable-background:new    ;" d="
			M300.6,154.1c0.1,0.7,0.2,1.5,0.4,2.2c0,0.2,0.3,0.4,0.6,0.4h6.8c0.3,0,0.6-0.2,0.6-0.4c0.1-0.7,0.3-1.5,0.4-2.2H300.6z"/>
	</g>
	<path class="st3" d="M306.1,156.8c0.2,0,0.4-0.1,0.4-0.3c1.3-5.5,2.1-13.6,2.1-22.7c0-12.3-1.5-22.9-3.6-27.6
		c-2.1,4.7-3.6,15.3-3.6,27.6c0,9,0.8,17.1,2.1,22.7c0,0.2,0.2,0.3,0.4,0.3H306.1z"/>
	
		<linearGradient id="SVGID_00000151535726120168710910000006546167221337042306_" gradientUnits="userSpaceOnUse" x1="-195.4681" y1="-277.3005" x2="-188.2607" y2="-277.3005" gradientTransform="matrix(1 0 0 -1 496.7862 -137.6005)">
		<stop  offset="0" style="stop-color:#1B284F"/>
		<stop  offset="1" style="stop-color:#1B284F;stop-opacity:0"/>
	</linearGradient>
	<path style="opacity:0.45;fill:url(#SVGID_00000151535726120168710910000006546167221337042306_);enable-background:new    ;" d="
		M301.4,138.1c0,1.1,0.1,2.2,0.1,3.2h6.8c0.1-1,0.1-2.1,0.1-3.2H301.4z"/>
	<path class="st12" d="M302.8,153.6c0.2,1,0.4,2,0.6,2.9c0,0.2,0.2,0.3,0.4,0.3h2.3c0.2,0,0.4-0.1,0.4-0.3c0.2-0.9,0.4-1.9,0.6-2.9
		H302.8z"/>
	<path class="st12" d="M307.3,152.2c0.1-0.4,0.1-0.7,0.2-1.1h-5c0.1,0.4,0.1,0.8,0.2,1.1H307.3z"/>
	<path class="st12" d="M302.1,148.5c0,0.4,0.1,0.7,0.1,1.1h5.4c0-0.4,0.1-0.7,0.1-1.1H302.1z"/>
	<path class="st5" d="M306.8,112.9c-0.5-2.8-1.2-5-1.9-6.6c-0.7,1.6-1.4,3.9-1.9,6.6l0,0C304.2,112.1,305.7,112.1,306.8,112.9
		L306.8,112.9z"/>
	<g>
		<line class="st13" x1="302.7" y1="142.5" x2="302.7" y2="143.3"/>
		<line class="st13" x1="304.9" y1="142.5" x2="304.9" y2="143.3"/>
		<line class="st13" x1="307.2" y1="142.5" x2="307.2" y2="143.3"/>
	</g>
	
		<linearGradient id="SVGID_00000127037804910061009190000006943740514414449822_" gradientUnits="userSpaceOnUse" x1="-374.3496" y1="182.0894" x2="-367.1252" y2="181.9657" gradientTransform="matrix(0 -1 -1 0 487.0503 -250.4654)">
		<stop  offset="0" style="stop-color:#1B284F"/>
		<stop  offset="1" style="stop-color:#1B284F;stop-opacity:0"/>
	</linearGradient>
	
		<circle style="opacity:0.45;fill:url(#SVGID_00000127037804910061009190000006943740514414449822_);enable-background:new    ;" cx="305" cy="121.6" r="2.3"/>
	<circle class="st5" cx="305" cy="121.6" r="1.8"/>
	<path class="st15" d="M305.5,167.8L305.5,167.8c-0.6,0-1.5-5.2-1.5-6.1v-0.2c0-0.8,0.7-1.5,1.5-1.5h0.2c0.8,0,1.5,0.7,1.5,1.5v0.2
		C307.1,162.6,306.1,167.8,305.5,167.8z"/>
	<path class="st16" d="M305.5,181.2L305.5,181.2c-0.5,0-4.2-14.5-4.2-16.7v-0.4c0-2.2,1.8-4.1,4.1-4h0.4c2.2,0,4.1,1.8,4,4.1v0.4
		C309.8,166.7,306.1,181.2,305.5,181.2z"/>
	<path class="st16" d="M305.6,175.9L305.6,175.9c-0.3,0-3.1-10.6-3.1-12.3v-0.3c0-1.6,1.4-3,3-3h0.3c1.6,0,3,1.4,3,3v0.3
		C308.8,165.3,306,175.9,305.6,175.9z"/>
</g>
</svg>
